<svg width="471" height="479" viewBox="0 0 471 479" fill="none" xmlns="http://www.w3.org/2000/svg">
<rect y="28" width="448" height="451" rx="12" fill="#F9F8FF"/>
<rect x="0.5" y="28.5" width="447" height="450" rx="11.5" stroke="#CEC1FF" stroke-opacity="0.5"/>
<path d="M147.59 92.288C146.374 92.288 145.294 92.072 144.35 91.64C143.406 91.208 142.67 90.592 142.142 89.792C141.614 88.992 141.342 88.04 141.326 86.936H144.374C144.374 87.496 144.502 88 144.758 88.448C145.03 88.88 145.398 89.224 145.862 89.48C146.342 89.736 146.918 89.864 147.59 89.864C148.166 89.864 148.662 89.776 149.078 89.6C149.51 89.408 149.838 89.144 150.062 88.808C150.302 88.456 150.422 88.048 150.422 87.584C150.422 87.056 150.294 86.624 150.038 86.288C149.798 85.936 149.462 85.64 149.03 85.4C148.598 85.16 148.102 84.952 147.542 84.776C146.982 84.584 146.39 84.384 145.766 84.176C144.438 83.728 143.438 83.16 142.766 82.472C142.094 81.768 141.758 80.832 141.758 79.664C141.758 78.688 141.99 77.848 142.454 77.144C142.918 76.44 143.566 75.896 144.398 75.512C145.246 75.112 146.222 74.912 147.326 74.912C148.446 74.912 149.422 75.112 150.254 75.512C151.102 75.912 151.766 76.472 152.246 77.192C152.742 77.896 152.998 78.744 153.014 79.736H149.942C149.926 79.32 149.814 78.936 149.606 78.584C149.398 78.216 149.094 77.92 148.694 77.696C148.31 77.456 147.838 77.336 147.278 77.336C146.798 77.32 146.366 77.4 145.982 77.576C145.614 77.736 145.318 77.976 145.094 78.296C144.886 78.6 144.782 78.984 144.782 79.448C144.782 79.896 144.878 80.272 145.07 80.576C145.278 80.864 145.574 81.112 145.958 81.32C146.342 81.512 146.79 81.696 147.302 81.872C147.814 82.048 148.374 82.24 148.982 82.448C149.814 82.72 150.566 83.056 151.238 83.456C151.926 83.84 152.47 84.344 152.87 84.968C153.27 85.592 153.47 86.4 153.47 87.392C153.47 88.256 153.246 89.064 152.798 89.816C152.35 90.552 151.694 91.152 150.83 91.616C149.966 92.064 148.886 92.288 147.59 92.288ZM160.206 92.288C159.214 92.288 158.39 92.12 157.734 91.784C157.078 91.448 156.59 91 156.27 90.44C155.95 89.88 155.79 89.272 155.79 88.616C155.79 87.848 155.982 87.184 156.366 86.624C156.766 86.064 157.35 85.632 158.118 85.328C158.886 85.008 159.83 84.848 160.95 84.848H163.998C163.998 84.208 163.91 83.68 163.734 83.264C163.558 82.832 163.286 82.512 162.918 82.304C162.55 82.096 162.078 81.992 161.502 81.992C160.846 81.992 160.286 82.144 159.822 82.448C159.358 82.736 159.07 83.184 158.958 83.792H156.126C156.222 82.928 156.51 82.192 156.99 81.584C157.47 80.96 158.102 80.48 158.886 80.144C159.686 79.792 160.558 79.616 161.502 79.616C162.638 79.616 163.606 79.816 164.406 80.216C165.206 80.6 165.814 81.16 166.23 81.896C166.662 82.616 166.878 83.488 166.878 84.512V92H164.43L164.142 90.056C163.982 90.376 163.774 90.672 163.518 90.944C163.278 91.216 162.998 91.456 162.678 91.664C162.358 91.856 161.99 92.008 161.574 92.12C161.174 92.232 160.718 92.288 160.206 92.288ZM160.854 90.008C161.318 90.008 161.726 89.928 162.078 89.768C162.446 89.592 162.758 89.352 163.014 89.048C163.286 88.728 163.494 88.376 163.638 87.992C163.782 87.608 163.878 87.2 163.926 86.768V86.72H161.262C160.702 86.72 160.238 86.792 159.87 86.936C159.502 87.064 159.238 87.256 159.078 87.512C158.918 87.768 158.838 88.064 158.838 88.4C158.838 88.736 158.918 89.024 159.078 89.264C159.238 89.504 159.47 89.688 159.774 89.816C160.078 89.944 160.438 90.008 160.854 90.008ZM172.893 92L168.429 79.904H171.453L174.645 89.264L177.837 79.904H180.813L176.349 92H172.893ZM182.99 92V79.904H185.87V92H182.99ZM184.43 77.984C183.902 77.984 183.462 77.824 183.11 77.504C182.774 77.168 182.606 76.76 182.606 76.28C182.606 75.784 182.774 75.384 183.11 75.08C183.462 74.76 183.902 74.6 184.43 74.6C184.958 74.6 185.39 74.76 185.726 75.08C186.078 75.384 186.254 75.784 186.254 76.28C186.254 76.76 186.078 77.168 185.726 77.504C185.39 77.824 184.958 77.984 184.43 77.984ZM189.198 92V79.904H191.742L191.958 81.92C192.326 81.216 192.854 80.656 193.542 80.24C194.23 79.824 195.046 79.616 195.99 79.616C196.966 79.616 197.798 79.824 198.486 80.24C199.174 80.64 199.702 81.232 200.07 82.016C200.454 82.8 200.646 83.776 200.646 84.944V92H197.766V85.208C197.766 84.2 197.542 83.424 197.094 82.88C196.646 82.336 195.982 82.064 195.102 82.064C194.526 82.064 194.006 82.2 193.542 82.472C193.094 82.744 192.734 83.144 192.462 83.672C192.206 84.184 192.078 84.808 192.078 85.544V92H189.198ZM208.77 97.568C207.634 97.568 206.634 97.424 205.77 97.136C204.922 96.864 204.258 96.44 203.778 95.864C203.314 95.304 203.082 94.6 203.082 93.752C203.082 93.256 203.202 92.768 203.442 92.288C203.698 91.824 204.074 91.392 204.57 90.992C205.082 90.576 205.73 90.216 206.514 89.912L207.786 91.304C207.018 91.576 206.482 91.904 206.178 92.288C205.874 92.672 205.722 93.064 205.722 93.464C205.722 93.88 205.85 94.224 206.106 94.496C206.378 94.784 206.738 95 207.186 95.144C207.65 95.288 208.17 95.36 208.746 95.36C209.306 95.36 209.794 95.28 210.21 95.12C210.626 94.976 210.946 94.768 211.17 94.496C211.41 94.224 211.53 93.896 211.53 93.512C211.53 93.032 211.362 92.64 211.026 92.336C210.69 92.048 210.026 91.872 209.034 91.808C208.186 91.744 207.442 91.656 206.802 91.544C206.162 91.416 205.61 91.272 205.146 91.112C204.698 90.952 204.314 90.776 203.994 90.584C203.674 90.376 203.41 90.168 203.202 89.96V89.408L205.722 86.768L207.858 87.464L205.026 90.224L205.77 88.832C205.93 88.944 206.09 89.048 206.25 89.144C206.426 89.24 206.642 89.328 206.898 89.408C207.17 89.472 207.522 89.536 207.954 89.6C208.386 89.664 208.946 89.728 209.634 89.792C210.706 89.872 211.578 90.064 212.25 90.368C212.922 90.672 213.418 91.08 213.738 91.592C214.058 92.104 214.218 92.72 214.218 93.44C214.218 94.144 214.018 94.808 213.618 95.432C213.234 96.056 212.642 96.568 211.842 96.968C211.042 97.368 210.018 97.568 208.77 97.568ZM208.77 88.376C207.762 88.376 206.89 88.184 206.154 87.8C205.434 87.4 204.882 86.872 204.498 86.216C204.114 85.544 203.922 84.808 203.922 84.008C203.922 83.192 204.114 82.456 204.498 81.8C204.882 81.144 205.434 80.616 206.154 80.216C206.89 79.816 207.762 79.616 208.77 79.616C209.778 79.616 210.642 79.816 211.362 80.216C212.082 80.616 212.634 81.144 213.018 81.8C213.402 82.456 213.594 83.192 213.594 84.008C213.594 84.808 213.402 85.544 213.018 86.216C212.634 86.872 212.082 87.4 211.362 87.8C210.642 88.184 209.778 88.376 208.77 88.376ZM208.77 86.144C209.458 86.144 210.01 85.96 210.426 85.592C210.842 85.224 211.05 84.696 211.05 84.008C211.05 83.32 210.842 82.8 210.426 82.448C210.01 82.08 209.458 81.896 208.77 81.896C208.082 81.896 207.522 82.08 207.09 82.448C206.658 82.8 206.442 83.32 206.442 84.008C206.442 84.696 206.658 85.224 207.09 85.592C207.522 85.96 208.082 86.144 208.77 86.144ZM210.762 82.016L210.21 79.904H215.178V81.704L210.762 82.016ZM223.677 92V75.2H227.085L232.461 86.048L237.789 75.2H241.221V92H238.341V80.144L233.589 89.648H231.333L226.557 80.168V92H223.677ZM250.174 92.288C249.022 92.288 247.982 92.024 247.054 91.496C246.142 90.952 245.422 90.208 244.894 89.264C244.382 88.304 244.126 87.208 244.126 85.976C244.126 84.712 244.39 83.608 244.918 82.664C245.446 81.704 246.166 80.96 247.078 80.432C248.006 79.888 249.046 79.616 250.198 79.616C251.35 79.616 252.382 79.888 253.294 80.432C254.222 80.96 254.942 81.696 255.454 82.64C255.982 83.584 256.246 84.688 256.246 85.952C256.246 87.216 255.982 88.32 255.454 89.264C254.926 90.208 254.198 90.952 253.27 91.496C252.358 92.024 251.326 92.288 250.174 92.288ZM250.174 89.816C250.75 89.816 251.27 89.672 251.734 89.384C252.214 89.096 252.598 88.664 252.886 88.088C253.174 87.512 253.318 86.8 253.318 85.952C253.318 85.104 253.174 84.4 252.886 83.84C252.614 83.264 252.238 82.832 251.758 82.544C251.294 82.256 250.774 82.112 250.198 82.112C249.638 82.112 249.118 82.256 248.638 82.544C248.158 82.832 247.774 83.264 247.486 83.84C247.198 84.4 247.054 85.104 247.054 85.952C247.054 86.8 247.198 87.512 247.486 88.088C247.774 88.664 248.15 89.096 248.614 89.384C249.094 89.672 249.614 89.816 250.174 89.816ZM264.441 92.288C263.321 92.288 262.321 92.016 261.441 91.472C260.561 90.928 259.873 90.176 259.377 89.216C258.897 88.256 258.657 87.168 258.657 85.952C258.657 84.736 258.905 83.656 259.401 82.712C259.897 81.752 260.585 81 261.465 80.456C262.361 79.896 263.369 79.616 264.489 79.616C265.401 79.616 266.193 79.792 266.865 80.144C267.553 80.48 268.097 80.96 268.497 81.584V74.72H271.377V92H268.785L268.497 90.248C268.241 90.6 267.929 90.936 267.561 91.256C267.193 91.56 266.753 91.808 266.241 92C265.729 92.192 265.129 92.288 264.441 92.288ZM265.041 89.792C265.729 89.792 266.337 89.632 266.865 89.312C267.393 88.976 267.801 88.52 268.089 87.944C268.377 87.368 268.521 86.704 268.521 85.952C268.521 85.2 268.377 84.536 268.089 83.96C267.801 83.384 267.393 82.936 266.865 82.616C266.337 82.296 265.729 82.136 265.041 82.136C264.385 82.136 263.793 82.296 263.265 82.616C262.737 82.936 262.321 83.384 262.017 83.96C261.729 84.536 261.585 85.2 261.585 85.952C261.585 86.704 261.729 87.368 262.017 87.944C262.321 88.52 262.737 88.976 263.265 89.312C263.793 89.632 264.385 89.792 265.041 89.792ZM279.069 92.288C278.093 92.288 277.253 92.096 276.549 91.712C275.861 91.312 275.333 90.72 274.965 89.936C274.597 89.136 274.413 88.152 274.413 86.984V79.904H277.293V86.696C277.293 87.736 277.509 88.528 277.941 89.072C278.389 89.6 279.061 89.864 279.957 89.864C280.533 89.864 281.045 89.728 281.493 89.456C281.957 89.184 282.317 88.792 282.573 88.28C282.845 87.752 282.981 87.112 282.981 86.36V79.904H285.861V92H283.317L283.101 89.984C282.733 90.688 282.197 91.248 281.493 91.664C280.805 92.08 279.997 92.288 279.069 92.288ZM289.065 92V74.72H291.945V92H289.065ZM300.823 92.288C299.623 92.288 298.567 92.032 297.655 91.52C296.743 90.992 296.031 90.256 295.519 89.312C295.007 88.368 294.751 87.28 294.751 86.048C294.751 84.768 294.999 83.648 295.495 82.688C296.007 81.728 296.719 80.976 297.631 80.432C298.559 79.888 299.631 79.616 300.847 79.616C302.031 79.616 303.063 79.88 303.943 80.408C304.823 80.936 305.503 81.648 305.983 82.544C306.463 83.424 306.703 84.416 306.703 85.52C306.703 85.68 306.703 85.856 306.703 86.048C306.703 86.24 306.687 86.44 306.655 86.648H296.815V84.8H303.799C303.767 83.92 303.471 83.232 302.911 82.736C302.351 82.224 301.655 81.968 300.823 81.968C300.231 81.968 299.687 82.104 299.191 82.376C298.695 82.648 298.303 83.056 298.015 83.6C297.727 84.128 297.583 84.8 297.583 85.616V86.312C297.583 87.064 297.719 87.712 297.991 88.256C298.279 88.8 298.663 89.216 299.143 89.504C299.639 89.776 300.191 89.912 300.799 89.912C301.471 89.912 302.023 89.768 302.455 89.48C302.903 89.192 303.231 88.808 303.439 88.328H306.367C306.143 89.08 305.775 89.76 305.263 90.368C304.751 90.96 304.119 91.432 303.367 91.784C302.615 92.12 301.767 92.288 300.823 92.288Z" fill="#080A29"/>
<path d="M53.228 131.168C52.5093 131.168 51.8793 131.042 51.338 130.79C50.7967 130.529 50.3767 130.165 50.078 129.698C49.7793 129.231 49.63 128.685 49.63 128.06H51.1C51.1093 128.415 51.1933 128.741 51.352 129.04C51.52 129.329 51.758 129.563 52.066 129.74C52.3833 129.908 52.7707 129.992 53.228 129.992C53.62 129.992 53.956 129.927 54.236 129.796C54.5253 129.665 54.7447 129.488 54.894 129.264C55.0433 129.031 55.118 128.765 55.118 128.466C55.118 128.121 55.0387 127.836 54.88 127.612C54.7213 127.388 54.5067 127.206 54.236 127.066C53.9747 126.917 53.6667 126.786 53.312 126.674C52.9667 126.562 52.6027 126.441 52.22 126.31C51.4453 126.058 50.8667 125.731 50.484 125.33C50.1107 124.929 49.924 124.406 49.924 123.762C49.924 123.211 50.0547 122.735 50.316 122.334C50.5773 121.923 50.9413 121.606 51.408 121.382C51.884 121.149 52.444 121.032 53.088 121.032C53.7227 121.032 54.278 121.149 54.754 121.382C55.23 121.615 55.6033 121.937 55.874 122.348C56.1447 122.759 56.28 123.239 56.28 123.79H54.796C54.796 123.538 54.7307 123.291 54.6 123.048C54.4693 122.805 54.2733 122.609 54.012 122.46C53.7507 122.301 53.4287 122.222 53.046 122.222C52.7287 122.213 52.444 122.264 52.192 122.376C51.94 122.488 51.744 122.651 51.604 122.866C51.464 123.081 51.394 123.337 51.394 123.636C51.394 123.935 51.4547 124.177 51.576 124.364C51.7067 124.541 51.8933 124.695 52.136 124.826C52.3787 124.957 52.6587 125.078 52.976 125.19C53.3027 125.293 53.662 125.409 54.054 125.54C54.5393 125.699 54.9687 125.895 55.342 126.128C55.7247 126.352 56.0233 126.646 56.238 127.01C56.462 127.365 56.574 127.822 56.574 128.382C56.574 128.867 56.448 129.32 56.196 129.74C55.944 130.16 55.5707 130.505 55.076 130.776C54.5813 131.037 53.9653 131.168 53.228 131.168ZM60.5068 131.168C59.9281 131.168 59.4475 131.07 59.0648 130.874C58.6821 130.678 58.3975 130.417 58.2108 130.09C58.0241 129.754 57.9308 129.395 57.9308 129.012C57.9308 128.545 58.0521 128.149 58.2948 127.822C58.5375 127.486 58.8828 127.229 59.3308 127.052C59.7788 126.875 60.3155 126.786 60.9408 126.786H62.7748C62.7748 126.375 62.7141 126.035 62.5928 125.764C62.4715 125.493 62.2895 125.293 62.0468 125.162C61.8135 125.022 61.5148 124.952 61.1508 124.952C60.7308 124.952 60.3715 125.055 60.0728 125.26C59.7741 125.456 59.5875 125.75 59.5128 126.142H58.1128C58.1688 125.647 58.3368 125.227 58.6168 124.882C58.9061 124.527 59.2748 124.257 59.7228 124.07C60.1708 123.874 60.6468 123.776 61.1508 123.776C61.8135 123.776 62.3688 123.893 62.8168 124.126C63.2648 124.359 63.6008 124.691 63.8248 125.12C64.0581 125.54 64.1748 126.044 64.1748 126.632V131H62.9568L62.8448 129.81C62.7421 129.997 62.6208 130.174 62.4808 130.342C62.3408 130.51 62.1728 130.655 61.9768 130.776C61.7901 130.897 61.5708 130.991 61.3188 131.056C61.0761 131.131 60.8055 131.168 60.5068 131.168ZM60.7728 130.034C61.0715 130.034 61.3421 129.973 61.5848 129.852C61.8275 129.731 62.0328 129.567 62.2008 129.362C62.3781 129.147 62.5088 128.909 62.5928 128.648C62.6861 128.377 62.7375 128.102 62.7468 127.822V127.78H61.0808C60.6795 127.78 60.3528 127.831 60.1008 127.934C59.8581 128.027 59.6808 128.158 59.5688 128.326C59.4568 128.494 59.4008 128.69 59.4008 128.914C59.4008 129.147 59.4521 129.348 59.5548 129.516C59.6668 129.675 59.8255 129.801 60.0308 129.894C60.2361 129.987 60.4835 130.034 60.7728 130.034ZM67.7177 131L65.0717 123.944H66.5417L68.5437 129.656L70.5597 123.944H72.0017L69.3697 131H67.7177ZM73.3605 131V123.944H74.7605V131H73.3605ZM74.0745 122.614C73.8039 122.614 73.5799 122.53 73.4025 122.362C73.2345 122.194 73.1505 121.979 73.1505 121.718C73.1505 121.466 73.2345 121.261 73.4025 121.102C73.5799 120.934 73.8039 120.85 74.0745 120.85C74.3359 120.85 74.5552 120.934 74.7325 121.102C74.9099 121.261 74.9985 121.466 74.9985 121.718C74.9985 121.979 74.9099 122.194 74.7325 122.362C74.5552 122.53 74.3359 122.614 74.0745 122.614ZM76.7625 131V123.944H78.0225L78.1065 125.148C78.3305 124.728 78.6479 124.397 79.0585 124.154C79.4692 123.902 79.9405 123.776 80.4725 123.776C81.0325 123.776 81.5132 123.888 81.9145 124.112C82.3159 124.336 82.6285 124.677 82.8525 125.134C83.0765 125.582 83.1885 126.147 83.1885 126.828V131H81.7885V126.968C81.7885 126.315 81.6439 125.82 81.3545 125.484C81.0652 125.148 80.6452 124.98 80.0945 124.98C79.7305 124.98 79.4039 125.069 79.1145 125.246C78.8252 125.414 78.5919 125.666 78.4145 126.002C78.2465 126.338 78.1625 126.749 78.1625 127.234V131H76.7625ZM87.8493 134.248C87.2053 134.248 86.636 134.164 86.1413 133.996C85.6467 133.837 85.264 133.59 84.9933 133.254C84.7227 132.918 84.5873 132.507 84.5873 132.022C84.5873 131.77 84.6433 131.513 84.7553 131.252C84.8673 131 85.0493 130.757 85.3013 130.524C85.5533 130.291 85.894 130.081 86.3233 129.894L87.1073 130.524C86.6313 130.701 86.3093 130.911 86.1413 131.154C85.9827 131.406 85.9033 131.649 85.9033 131.882C85.9033 132.162 85.9873 132.395 86.1553 132.582C86.3233 132.769 86.552 132.909 86.8413 133.002C87.14 133.095 87.476 133.142 87.8493 133.142C88.2133 133.142 88.5307 133.091 88.8013 132.988C89.072 132.885 89.282 132.741 89.4313 132.554C89.5807 132.367 89.6553 132.148 89.6553 131.896C89.6553 131.597 89.5433 131.345 89.3193 131.14C89.0953 130.944 88.666 130.827 88.0313 130.79C87.4993 130.753 87.0467 130.701 86.6733 130.636C86.3093 130.571 85.9967 130.491 85.7353 130.398C85.4833 130.305 85.2687 130.202 85.0913 130.09C84.9233 129.978 84.7787 129.861 84.6573 129.74V129.418L86.0573 127.976L87.1913 128.368L85.6653 129.782L85.9593 129.152C86.062 129.217 86.16 129.283 86.2533 129.348C86.3467 129.404 86.4727 129.455 86.6313 129.502C86.79 129.549 87.0047 129.591 87.2753 129.628C87.546 129.665 87.9007 129.703 88.3393 129.74C88.974 129.787 89.4827 129.899 89.8653 130.076C90.2573 130.253 90.542 130.491 90.7193 130.79C90.8967 131.089 90.9853 131.443 90.9853 131.854C90.9853 132.255 90.8733 132.638 90.6493 133.002C90.4347 133.366 90.094 133.665 89.6273 133.898C89.17 134.131 88.5773 134.248 87.8493 134.248ZM87.8493 128.83C87.252 128.83 86.7433 128.718 86.3233 128.494C85.9127 128.27 85.5953 127.967 85.3713 127.584C85.1567 127.201 85.0493 126.777 85.0493 126.31C85.0493 125.834 85.1567 125.409 85.3713 125.036C85.5953 124.653 85.9173 124.35 86.3373 124.126C86.7573 123.893 87.2613 123.776 87.8493 123.776C88.4373 123.776 88.9367 123.893 89.3473 124.126C89.7673 124.35 90.0847 124.653 90.2993 125.036C90.5233 125.409 90.6353 125.834 90.6353 126.31C90.6353 126.777 90.5233 127.201 90.2993 127.584C90.0847 127.967 89.7673 128.27 89.3473 128.494C88.9367 128.718 88.4373 128.83 87.8493 128.83ZM87.8493 127.71C88.3067 127.71 88.6707 127.593 88.9413 127.36C89.212 127.117 89.3473 126.767 89.3473 126.31C89.3473 125.853 89.212 125.507 88.9413 125.274C88.6707 125.031 88.3067 124.91 87.8493 124.91C87.392 124.91 87.0233 125.031 86.7433 125.274C86.4633 125.507 86.3233 125.853 86.3233 126.31C86.3233 126.767 86.4633 127.117 86.7433 127.36C87.0233 127.593 87.392 127.71 87.8493 127.71ZM88.9973 125.05L88.6613 123.944H91.5593V124.91L88.9973 125.05ZM95.6937 131.168C95.0964 131.168 94.5737 131.07 94.1257 130.874C93.6777 130.678 93.3231 130.403 93.0617 130.048C92.8004 129.693 92.6417 129.278 92.5857 128.802H94.0137C94.0604 129.026 94.1491 129.231 94.2797 129.418C94.4197 129.605 94.6064 129.754 94.8397 129.866C95.0824 129.978 95.3671 130.034 95.6937 130.034C96.0017 130.034 96.2537 129.992 96.4497 129.908C96.6551 129.815 96.8044 129.693 96.8977 129.544C96.9911 129.385 97.0377 129.217 97.0377 129.04C97.0377 128.779 96.9724 128.583 96.8417 128.452C96.7204 128.312 96.5337 128.205 96.2817 128.13C96.0391 128.046 95.7451 127.971 95.3997 127.906C95.0731 127.85 94.7557 127.775 94.4477 127.682C94.1491 127.579 93.8784 127.453 93.6357 127.304C93.4024 127.155 93.2157 126.968 93.0757 126.744C92.9357 126.511 92.8657 126.226 92.8657 125.89C92.8657 125.489 92.9731 125.129 93.1877 124.812C93.4024 124.485 93.7057 124.233 94.0977 124.056C94.4991 123.869 94.9704 123.776 95.5117 123.776C96.2957 123.776 96.9257 123.963 97.4017 124.336C97.8777 124.709 98.1577 125.237 98.2417 125.918H96.8837C96.8464 125.601 96.7064 125.358 96.4637 125.19C96.2211 125.013 95.8991 124.924 95.4977 124.924C95.0964 124.924 94.7884 125.003 94.5737 125.162C94.3591 125.321 94.2517 125.531 94.2517 125.792C94.2517 125.96 94.3124 126.109 94.4337 126.24C94.5551 126.371 94.7324 126.483 94.9657 126.576C95.2084 126.66 95.5024 126.739 95.8477 126.814C96.3424 126.907 96.7857 127.024 97.1777 127.164C97.5697 127.304 97.8824 127.509 98.1157 127.78C98.3491 128.051 98.4657 128.438 98.4657 128.942C98.4751 129.381 98.3631 129.768 98.1297 130.104C97.9057 130.44 97.5837 130.701 97.1637 130.888C96.7531 131.075 96.2631 131.168 95.6937 131.168ZM106.048 131V122.348H103.15V121.2H110.36V122.348H107.448V131H106.048ZM111.806 131V123.944H113.206V131H111.806ZM112.52 122.614C112.249 122.614 112.025 122.53 111.848 122.362C111.68 122.194 111.596 121.979 111.596 121.718C111.596 121.466 111.68 121.261 111.848 121.102C112.025 120.934 112.249 120.85 112.52 120.85C112.781 120.85 113.001 120.934 113.178 121.102C113.355 121.261 113.444 121.466 113.444 121.718C113.444 121.979 113.355 122.194 113.178 122.362C113.001 122.53 112.781 122.614 112.52 122.614ZM118.12 131C117.672 131 117.285 130.93 116.958 130.79C116.631 130.65 116.379 130.417 116.202 130.09C116.025 129.763 115.936 129.32 115.936 128.76V125.134H114.718V123.944H115.936L116.104 122.18H117.336V123.944H119.338V125.134H117.336V128.774C117.336 129.175 117.42 129.451 117.588 129.6C117.756 129.74 118.045 129.81 118.456 129.81H119.268V131H118.12ZM120.882 131V120.92H122.282V131H120.882ZM127.396 131.168C126.724 131.168 126.127 131.014 125.604 130.706C125.081 130.398 124.671 129.969 124.372 129.418C124.083 128.867 123.938 128.228 123.938 127.5C123.938 126.753 124.083 126.105 124.372 125.554C124.671 124.994 125.081 124.56 125.604 124.252C126.127 123.935 126.733 123.776 127.424 123.776C128.115 123.776 128.707 123.93 129.202 124.238C129.697 124.546 130.079 124.957 130.35 125.47C130.621 125.974 130.756 126.534 130.756 127.15C130.756 127.243 130.751 127.346 130.742 127.458C130.742 127.561 130.737 127.677 130.728 127.808H124.96V126.814H129.356C129.328 126.226 129.132 125.769 128.768 125.442C128.404 125.106 127.951 124.938 127.41 124.938C127.027 124.938 126.677 125.027 126.36 125.204C126.043 125.372 125.786 125.624 125.59 125.96C125.403 126.287 125.31 126.702 125.31 127.206V127.598C125.31 128.121 125.403 128.564 125.59 128.928C125.786 129.283 126.043 129.553 126.36 129.74C126.677 129.917 127.023 130.006 127.396 130.006C127.844 130.006 128.213 129.908 128.502 129.712C128.791 129.516 129.006 129.25 129.146 128.914H130.546C130.425 129.343 130.219 129.731 129.93 130.076C129.641 130.412 129.281 130.678 128.852 130.874C128.432 131.07 127.947 131.168 127.396 131.168Z" fill="#080A29"/>
<rect x="49.5" y="144.5" width="349" height="51" rx="7.5" fill="white"/>
<rect x="49.5" y="144.5" width="349" height="51" rx="7.5" stroke="#BDBDBD"/>
<path d="M66.1186 175V164.818H72.5021V166.141H67.6548V169.243H72.169V170.56H67.6548V173.678H72.5618V175H66.1186ZM74.4348 175V167.364H75.8617V168.607H75.9561C76.1152 168.186 76.3754 167.857 76.7367 167.622C77.098 167.384 77.5305 167.264 78.0343 167.264C78.5447 167.264 78.9722 167.384 79.3169 167.622C79.665 167.861 79.9218 168.189 80.0875 168.607H80.1671C80.3494 168.199 80.6394 167.874 81.0371 167.632C81.4348 167.387 81.9088 167.264 82.459 167.264C83.1517 167.264 83.7168 167.481 84.1543 167.915C84.5951 168.35 84.8155 169.004 84.8155 169.879V175H83.329V170.018C83.329 169.501 83.1882 169.127 82.9064 168.895C82.6247 168.663 82.2883 168.547 81.8972 168.547C81.4133 168.547 81.0371 168.696 80.7686 168.994C80.5002 169.289 80.3659 169.669 80.3659 170.133V175H78.8844V169.924C78.8844 169.51 78.7551 169.177 78.4966 168.925C78.2381 168.673 77.9017 168.547 77.4874 168.547C77.2057 168.547 76.9455 168.621 76.7069 168.771C76.4715 168.916 76.281 169.12 76.1351 169.382C75.9926 169.644 75.9213 169.947 75.9213 170.292V175H74.4348ZM89.0302 175.169C88.5463 175.169 88.1088 175.08 87.7177 174.901C87.3266 174.718 87.0167 174.455 86.788 174.11C86.5626 173.765 86.4499 173.343 86.4499 172.842C86.4499 172.411 86.5328 172.057 86.6985 171.778C86.8642 171.5 87.0879 171.28 87.3697 171.117C87.6514 170.955 87.9663 170.832 88.3143 170.749C88.6623 170.666 89.0169 170.603 89.3782 170.56C89.8356 170.507 90.2068 170.464 90.4918 170.431C90.7769 170.395 90.984 170.337 91.1133 170.257C91.2425 170.178 91.3072 170.048 91.3072 169.869V169.835C91.3072 169.4 91.1845 169.064 90.9393 168.825C90.6973 168.587 90.3361 168.467 89.8555 168.467C89.355 168.467 88.9606 168.578 88.6722 168.8C88.3872 169.019 88.19 169.263 88.0806 169.531L86.6836 169.213C86.8493 168.749 87.0913 168.375 87.4094 168.089C87.7309 167.801 88.1005 167.592 88.5181 167.463C88.9357 167.33 89.3749 167.264 89.8356 167.264C90.1405 167.264 90.4637 167.301 90.805 167.374C91.1497 167.443 91.4712 167.572 91.7695 167.761C92.0711 167.95 92.3181 168.22 92.5103 168.572C92.7025 168.92 92.7987 169.372 92.7987 169.929V175H91.3469V173.956H91.2873C91.1912 174.148 91.047 174.337 90.8548 174.523C90.6625 174.708 90.4156 174.862 90.114 174.985C89.8124 175.108 89.4511 175.169 89.0302 175.169ZM89.3533 173.976C89.7643 173.976 90.1156 173.895 90.4073 173.732C90.7023 173.57 90.926 173.358 91.0785 173.096C91.2343 172.831 91.3121 172.547 91.3121 172.246V171.261C91.2591 171.314 91.1564 171.364 91.0039 171.411C90.8548 171.454 90.6841 171.492 90.4918 171.525C90.2996 171.555 90.1123 171.583 89.93 171.609C89.7478 171.633 89.5953 171.652 89.4727 171.669C89.1843 171.705 88.9208 171.767 88.6822 171.853C88.4469 171.939 88.2579 172.063 88.1154 172.226C87.9762 172.385 87.9066 172.597 87.9066 172.862C87.9066 173.23 88.0425 173.509 88.3143 173.697C88.5861 173.883 88.9324 173.976 89.3533 173.976ZM94.7786 175V167.364H96.2651V175H94.7786ZM95.5293 166.185C95.2708 166.185 95.0487 166.099 94.8631 165.927C94.6808 165.751 94.5897 165.542 94.5897 165.3C94.5897 165.055 94.6808 164.846 94.8631 164.674C95.0487 164.498 95.2708 164.411 95.5293 164.411C95.7878 164.411 96.0082 164.498 96.1905 164.674C96.3761 164.846 96.4689 165.055 96.4689 165.3C96.4689 165.542 96.3761 165.751 96.1905 165.927C96.0082 166.099 95.7878 166.185 95.5293 166.185ZM99.7514 164.818V175H98.2649V164.818H99.7514Z" fill="#8C8F97"/>
<path d="M50.022 219V209.2H56.112V210.348H51.422V213.526H55.342V214.646H51.422V219H50.022ZM57.6379 219V211.944H59.0379V219H57.6379ZM58.3519 210.614C58.0812 210.614 57.8572 210.53 57.6799 210.362C57.5119 210.194 57.4279 209.979 57.4279 209.718C57.4279 209.466 57.5119 209.261 57.6799 209.102C57.8572 208.934 58.0812 208.85 58.3519 208.85C58.6132 208.85 58.8326 208.934 59.0099 209.102C59.1872 209.261 59.2759 209.466 59.2759 209.718C59.2759 209.979 59.1872 210.194 59.0099 210.362C58.8326 210.53 58.6132 210.614 58.3519 210.614ZM61.0399 219V211.944H62.2999L62.3839 213.148C62.6079 212.728 62.9252 212.397 63.3359 212.154C63.7466 211.902 64.2179 211.776 64.7499 211.776C65.3099 211.776 65.7906 211.888 66.1919 212.112C66.5932 212.336 66.9059 212.677 67.1299 213.134C67.3539 213.582 67.4659 214.147 67.4659 214.828V219H66.0659V214.968C66.0659 214.315 65.9212 213.82 65.6319 213.484C65.3426 213.148 64.9226 212.98 64.3719 212.98C64.0079 212.98 63.6812 213.069 63.3919 213.246C63.1026 213.414 62.8692 213.666 62.6919 214.002C62.5239 214.338 62.4399 214.749 62.4399 215.234V219H61.0399ZM71.5947 219.168C71.016 219.168 70.5354 219.07 70.1527 218.874C69.77 218.678 69.4854 218.417 69.2987 218.09C69.112 217.754 69.0187 217.395 69.0187 217.012C69.0187 216.545 69.14 216.149 69.3827 215.822C69.6254 215.486 69.9707 215.229 70.4187 215.052C70.8667 214.875 71.4034 214.786 72.0287 214.786H73.8627C73.8627 214.375 73.802 214.035 73.6807 213.764C73.5594 213.493 73.3774 213.293 73.1347 213.162C72.9014 213.022 72.6027 212.952 72.2387 212.952C71.8187 212.952 71.4594 213.055 71.1607 213.26C70.862 213.456 70.6754 213.75 70.6007 214.142H69.2007C69.2567 213.647 69.4247 213.227 69.7047 212.882C69.994 212.527 70.3627 212.257 70.8107 212.07C71.2587 211.874 71.7347 211.776 72.2387 211.776C72.9014 211.776 73.4567 211.893 73.9047 212.126C74.3527 212.359 74.6887 212.691 74.9127 213.12C75.146 213.54 75.2627 214.044 75.2627 214.632V219H74.0447L73.9327 217.81C73.83 217.997 73.7087 218.174 73.5687 218.342C73.4287 218.51 73.2607 218.655 73.0647 218.776C72.878 218.897 72.6587 218.991 72.4067 219.056C72.164 219.131 71.8934 219.168 71.5947 219.168ZM71.8607 218.034C72.1594 218.034 72.43 217.973 72.6727 217.852C72.9154 217.731 73.1207 217.567 73.2887 217.362C73.466 217.147 73.5967 216.909 73.6807 216.648C73.774 216.377 73.8254 216.102 73.8347 215.822V215.78H72.1687C71.7674 215.78 71.4407 215.831 71.1887 215.934C70.946 216.027 70.7687 216.158 70.6567 216.326C70.5447 216.494 70.4887 216.69 70.4887 216.914C70.4887 217.147 70.54 217.348 70.6427 217.516C70.7547 217.675 70.9134 217.801 71.1187 217.894C71.324 217.987 71.5714 218.034 71.8607 218.034ZM77.0497 219V211.944H78.3097L78.3937 213.148C78.6177 212.728 78.935 212.397 79.3457 212.154C79.7563 211.902 80.2277 211.776 80.7597 211.776C81.3197 211.776 81.8003 211.888 82.2017 212.112C82.603 212.336 82.9157 212.677 83.1397 213.134C83.3637 213.582 83.4757 214.147 83.4757 214.828V219H82.0757V214.968C82.0757 214.315 81.931 213.82 81.6417 213.484C81.3523 213.148 80.9323 212.98 80.3817 212.98C80.0177 212.98 79.691 213.069 79.4017 213.246C79.1123 213.414 78.879 213.666 78.7017 214.002C78.5337 214.338 78.4497 214.749 78.4497 215.234V219H77.0497ZM88.5285 219.168C87.8471 219.168 87.2405 219.014 86.7085 218.706C86.1765 218.389 85.7565 217.955 85.4485 217.404C85.1498 216.853 85.0005 216.214 85.0005 215.486C85.0005 214.749 85.1498 214.105 85.4485 213.554C85.7565 212.994 86.1765 212.56 86.7085 212.252C87.2405 211.935 87.8471 211.776 88.5285 211.776C89.3871 211.776 90.1058 212 90.6845 212.448C91.2631 212.896 91.6318 213.503 91.7905 214.268H90.3345C90.2411 213.857 90.0265 213.54 89.6905 213.316C89.3638 213.092 88.9718 212.98 88.5145 212.98C88.1411 212.98 87.7958 213.078 87.4785 213.274C87.1611 213.461 86.9045 213.741 86.7085 214.114C86.5218 214.478 86.4285 214.931 86.4285 215.472C86.4285 215.873 86.4845 216.233 86.5965 216.55C86.7085 216.858 86.8578 217.119 87.0445 217.334C87.2405 217.549 87.4645 217.712 87.7165 217.824C87.9685 217.927 88.2345 217.978 88.5145 217.978C88.8225 217.978 89.0978 217.931 89.3405 217.838C89.5925 217.735 89.8025 217.586 89.9705 217.39C90.1478 217.194 90.2691 216.961 90.3345 216.69H91.7905C91.6318 217.437 91.2631 218.039 90.6845 218.496C90.1058 218.944 89.3871 219.168 88.5285 219.168ZM93.5266 219V211.944H94.9266V219H93.5266ZM94.2406 210.614C93.9699 210.614 93.7459 210.53 93.5686 210.362C93.4006 210.194 93.3166 209.979 93.3166 209.718C93.3166 209.466 93.4006 209.261 93.5686 209.102C93.7459 208.934 93.9699 208.85 94.2406 208.85C94.5019 208.85 94.7212 208.934 94.8986 209.102C95.0759 209.261 95.1646 209.466 95.1646 209.718C95.1646 209.979 95.0759 210.194 94.8986 210.362C94.7212 210.53 94.5019 210.614 94.2406 210.614ZM99.2666 219.168C98.6879 219.168 98.2072 219.07 97.8246 218.874C97.4419 218.678 97.1572 218.417 96.9706 218.09C96.7839 217.754 96.6906 217.395 96.6906 217.012C96.6906 216.545 96.8119 216.149 97.0546 215.822C97.2972 215.486 97.6426 215.229 98.0906 215.052C98.5386 214.875 99.0752 214.786 99.7006 214.786H101.535C101.535 214.375 101.474 214.035 101.353 213.764C101.231 213.493 101.049 213.293 100.807 213.162C100.573 213.022 100.275 212.952 99.9106 212.952C99.4906 212.952 99.1312 213.055 98.8326 213.26C98.5339 213.456 98.3472 213.75 98.2726 214.142H96.8726C96.9286 213.647 97.0966 213.227 97.3766 212.882C97.6659 212.527 98.0346 212.257 98.4826 212.07C98.9306 211.874 99.4066 211.776 99.9106 211.776C100.573 211.776 101.129 211.893 101.577 212.126C102.025 212.359 102.361 212.691 102.585 213.12C102.818 213.54 102.935 214.044 102.935 214.632V219H101.717L101.605 217.81C101.502 217.997 101.381 218.174 101.241 218.342C101.101 218.51 100.933 218.655 100.737 218.776C100.55 218.897 100.331 218.991 100.079 219.056C99.8359 219.131 99.5652 219.168 99.2666 219.168ZM99.5326 218.034C99.8312 218.034 100.102 217.973 100.345 217.852C100.587 217.731 100.793 217.567 100.961 217.362C101.138 217.147 101.269 216.909 101.353 216.648C101.446 216.377 101.497 216.102 101.507 215.822V215.78H99.8406C99.4392 215.78 99.1126 215.831 98.8606 215.934C98.6179 216.027 98.4406 216.158 98.3286 216.326C98.2166 216.494 98.1606 216.69 98.1606 216.914C98.1606 217.147 98.2119 217.348 98.3146 217.516C98.4266 217.675 98.5852 217.801 98.7906 217.894C98.9959 217.987 99.2432 218.034 99.5326 218.034ZM104.722 219V208.92H106.122V219H104.722ZM115.938 219.168C115.014 219.168 114.206 218.958 113.516 218.538C112.825 218.118 112.288 217.53 111.906 216.774C111.523 216.018 111.332 215.136 111.332 214.128C111.332 213.129 111.523 212.247 111.906 211.482C112.298 210.717 112.853 210.119 113.572 209.69C114.3 209.251 115.158 209.032 116.148 209.032C117.258 209.032 118.187 209.303 118.934 209.844C119.68 210.376 120.161 211.118 120.376 212.07H118.78C118.64 211.529 118.346 211.104 117.898 210.796C117.45 210.479 116.862 210.32 116.134 210.32C115.443 210.32 114.841 210.474 114.328 210.782C113.824 211.09 113.436 211.529 113.166 212.098C112.895 212.667 112.76 213.344 112.76 214.128C112.76 214.921 112.895 215.603 113.166 216.172C113.436 216.741 113.819 217.175 114.314 217.474C114.808 217.773 115.378 217.922 116.022 217.922C117.011 217.922 117.753 217.637 118.248 217.068C118.752 216.499 119.046 215.738 119.13 214.786H116.428V213.708H120.544V219H119.27L119.144 217.502C118.92 217.866 118.658 218.174 118.36 218.426C118.07 218.669 117.73 218.855 117.338 218.986C116.946 219.107 116.479 219.168 115.938 219.168ZM125.537 219.168C124.875 219.168 124.277 219.014 123.745 218.706C123.223 218.398 122.807 217.969 122.499 217.418C122.201 216.858 122.051 216.214 122.051 215.486C122.051 214.739 122.205 214.091 122.513 213.54C122.821 212.98 123.241 212.546 123.773 212.238C124.305 211.93 124.903 211.776 125.565 211.776C126.237 211.776 126.835 211.93 127.357 212.238C127.88 212.546 128.291 212.975 128.589 213.526C128.897 214.077 129.051 214.725 129.051 215.472C129.051 216.219 128.897 216.867 128.589 217.418C128.291 217.969 127.875 218.398 127.343 218.706C126.811 219.014 126.209 219.168 125.537 219.168ZM125.537 217.964C125.92 217.964 126.265 217.871 126.573 217.684C126.891 217.497 127.143 217.222 127.329 216.858C127.525 216.485 127.623 216.023 127.623 215.472C127.623 214.921 127.53 214.464 127.343 214.1C127.157 213.727 126.905 213.447 126.587 213.26C126.279 213.073 125.939 212.98 125.565 212.98C125.192 212.98 124.847 213.073 124.529 213.26C124.212 213.447 123.955 213.727 123.759 214.1C123.573 214.464 123.479 214.921 123.479 215.472C123.479 216.023 123.573 216.485 123.759 216.858C123.955 217.222 124.207 217.497 124.515 217.684C124.833 217.871 125.173 217.964 125.537 217.964ZM133.036 219.168C132.457 219.168 131.977 219.07 131.594 218.874C131.211 218.678 130.927 218.417 130.74 218.09C130.553 217.754 130.46 217.395 130.46 217.012C130.46 216.545 130.581 216.149 130.824 215.822C131.067 215.486 131.412 215.229 131.86 215.052C132.308 214.875 132.845 214.786 133.47 214.786H135.304C135.304 214.375 135.243 214.035 135.122 213.764C135.001 213.493 134.819 213.293 134.576 213.162C134.343 213.022 134.044 212.952 133.68 212.952C133.26 212.952 132.901 213.055 132.602 213.26C132.303 213.456 132.117 213.75 132.042 214.142H130.642C130.698 213.647 130.866 213.227 131.146 212.882C131.435 212.527 131.804 212.257 132.252 212.07C132.7 211.874 133.176 211.776 133.68 211.776C134.343 211.776 134.898 211.893 135.346 212.126C135.794 212.359 136.13 212.691 136.354 213.12C136.587 213.54 136.704 214.044 136.704 214.632V219H135.486L135.374 217.81C135.271 217.997 135.15 218.174 135.01 218.342C134.87 218.51 134.702 218.655 134.506 218.776C134.319 218.897 134.1 218.991 133.848 219.056C133.605 219.131 133.335 219.168 133.036 219.168ZM133.302 218.034C133.601 218.034 133.871 217.973 134.114 217.852C134.357 217.731 134.562 217.567 134.73 217.362C134.907 217.147 135.038 216.909 135.122 216.648C135.215 216.377 135.267 216.102 135.276 215.822V215.78H133.61C133.209 215.78 132.882 215.831 132.63 215.934C132.387 216.027 132.21 216.158 132.098 216.326C131.986 216.494 131.93 216.69 131.93 216.914C131.93 217.147 131.981 217.348 132.084 217.516C132.196 217.675 132.355 217.801 132.56 217.894C132.765 217.987 133.013 218.034 133.302 218.034ZM138.491 219V208.92H139.891V219H138.491ZM145.465 219V209.2H148.475C149.614 209.2 150.557 209.401 151.303 209.802C152.05 210.203 152.601 210.773 152.955 211.51C153.319 212.238 153.501 213.106 153.501 214.114C153.501 215.122 153.319 215.99 152.955 216.718C152.601 217.446 152.05 218.011 151.303 218.412C150.566 218.804 149.623 219 148.475 219H145.465ZM146.865 217.824H148.419C149.325 217.824 150.043 217.675 150.575 217.376C151.107 217.077 151.485 216.653 151.709 216.102C151.943 215.542 152.059 214.879 152.059 214.114C152.059 213.339 151.943 212.672 151.709 212.112C151.485 211.552 151.107 211.123 150.575 210.824C150.043 210.525 149.325 210.376 148.419 210.376H146.865V217.824ZM158.308 219.168C157.636 219.168 157.039 219.014 156.516 218.706C155.993 218.398 155.583 217.969 155.284 217.418C154.995 216.867 154.85 216.228 154.85 215.5C154.85 214.753 154.995 214.105 155.284 213.554C155.583 212.994 155.993 212.56 156.516 212.252C157.039 211.935 157.645 211.776 158.336 211.776C159.027 211.776 159.619 211.93 160.114 212.238C160.609 212.546 160.991 212.957 161.262 213.47C161.533 213.974 161.668 214.534 161.668 215.15C161.668 215.243 161.663 215.346 161.654 215.458C161.654 215.561 161.649 215.677 161.64 215.808H155.872V214.814H160.268C160.24 214.226 160.044 213.769 159.68 213.442C159.316 213.106 158.863 212.938 158.322 212.938C157.939 212.938 157.589 213.027 157.272 213.204C156.955 213.372 156.698 213.624 156.502 213.96C156.315 214.287 156.222 214.702 156.222 215.206V215.598C156.222 216.121 156.315 216.564 156.502 216.928C156.698 217.283 156.955 217.553 157.272 217.74C157.589 217.917 157.935 218.006 158.308 218.006C158.756 218.006 159.125 217.908 159.414 217.712C159.703 217.516 159.918 217.25 160.058 216.914H161.458C161.337 217.343 161.131 217.731 160.842 218.076C160.553 218.412 160.193 218.678 159.764 218.874C159.344 219.07 158.859 219.168 158.308 219.168ZM165.953 219.168C165.356 219.168 164.833 219.07 164.385 218.874C163.937 218.678 163.583 218.403 163.321 218.048C163.06 217.693 162.901 217.278 162.845 216.802H164.273C164.32 217.026 164.409 217.231 164.539 217.418C164.679 217.605 164.866 217.754 165.099 217.866C165.342 217.978 165.627 218.034 165.953 218.034C166.261 218.034 166.513 217.992 166.709 217.908C166.915 217.815 167.064 217.693 167.157 217.544C167.251 217.385 167.297 217.217 167.297 217.04C167.297 216.779 167.232 216.583 167.101 216.452C166.98 216.312 166.793 216.205 166.541 216.13C166.299 216.046 166.005 215.971 165.659 215.906C165.333 215.85 165.015 215.775 164.707 215.682C164.409 215.579 164.138 215.453 163.895 215.304C163.662 215.155 163.475 214.968 163.335 214.744C163.195 214.511 163.125 214.226 163.125 213.89C163.125 213.489 163.233 213.129 163.447 212.812C163.662 212.485 163.965 212.233 164.357 212.056C164.759 211.869 165.23 211.776 165.771 211.776C166.555 211.776 167.185 211.963 167.661 212.336C168.137 212.709 168.417 213.237 168.501 213.918H167.143C167.106 213.601 166.966 213.358 166.723 213.19C166.481 213.013 166.159 212.924 165.757 212.924C165.356 212.924 165.048 213.003 164.833 213.162C164.619 213.321 164.511 213.531 164.511 213.792C164.511 213.96 164.572 214.109 164.693 214.24C164.815 214.371 164.992 214.483 165.225 214.576C165.468 214.66 165.762 214.739 166.107 214.814C166.602 214.907 167.045 215.024 167.437 215.164C167.829 215.304 168.142 215.509 168.375 215.78C168.609 216.051 168.725 216.438 168.725 216.942C168.735 217.381 168.623 217.768 168.389 218.104C168.165 218.44 167.843 218.701 167.423 218.888C167.013 219.075 166.523 219.168 165.953 219.168ZM173.636 219.168C172.955 219.168 172.348 219.014 171.816 218.706C171.284 218.389 170.864 217.955 170.556 217.404C170.257 216.853 170.108 216.214 170.108 215.486C170.108 214.749 170.257 214.105 170.556 213.554C170.864 212.994 171.284 212.56 171.816 212.252C172.348 211.935 172.955 211.776 173.636 211.776C174.495 211.776 175.213 212 175.792 212.448C176.371 212.896 176.739 213.503 176.898 214.268H175.442C175.349 213.857 175.134 213.54 174.798 213.316C174.471 213.092 174.079 212.98 173.622 212.98C173.249 212.98 172.903 213.078 172.586 213.274C172.269 213.461 172.012 213.741 171.816 214.114C171.629 214.478 171.536 214.931 171.536 215.472C171.536 215.873 171.592 216.233 171.704 216.55C171.816 216.858 171.965 217.119 172.152 217.334C172.348 217.549 172.572 217.712 172.824 217.824C173.076 217.927 173.342 217.978 173.622 217.978C173.93 217.978 174.205 217.931 174.448 217.838C174.7 217.735 174.91 217.586 175.078 217.39C175.255 217.194 175.377 216.961 175.442 216.69H176.898C176.739 217.437 176.371 218.039 175.792 218.496C175.213 218.944 174.495 219.168 173.636 219.168ZM178.536 219V211.944H179.796L179.922 213.274C180.081 212.957 180.286 212.691 180.538 212.476C180.79 212.252 181.084 212.079 181.42 211.958C181.765 211.837 182.157 211.776 182.596 211.776V213.26H182.092C181.803 213.26 181.527 213.297 181.266 213.372C181.005 213.437 180.771 213.554 180.566 213.722C180.37 213.89 180.216 214.119 180.104 214.408C179.992 214.697 179.936 215.057 179.936 215.486V219H178.536ZM183.98 219V211.944H185.38V219H183.98ZM184.694 210.614C184.423 210.614 184.199 210.53 184.022 210.362C183.854 210.194 183.77 209.979 183.77 209.718C183.77 209.466 183.854 209.261 184.022 209.102C184.199 208.934 184.423 208.85 184.694 208.85C184.955 208.85 185.174 208.934 185.352 209.102C185.529 209.261 185.618 209.466 185.618 209.718C185.618 209.979 185.529 210.194 185.352 210.362C185.174 210.53 184.955 210.614 184.694 210.614ZM187.382 222.08V211.944H188.642L188.782 213.036C188.931 212.821 189.118 212.621 189.342 212.434C189.566 212.238 189.832 212.079 190.14 211.958C190.457 211.837 190.826 211.776 191.246 211.776C191.918 211.776 192.506 211.939 193.01 212.266C193.523 212.593 193.92 213.036 194.2 213.596C194.489 214.147 194.634 214.777 194.634 215.486C194.634 216.195 194.489 216.83 194.2 217.39C193.91 217.941 193.509 218.375 192.996 218.692C192.492 219.009 191.904 219.168 191.232 219.168C190.681 219.168 190.196 219.061 189.776 218.846C189.356 218.622 189.024 218.314 188.782 217.922V222.08H187.382ZM191.008 217.95C191.437 217.95 191.815 217.847 192.142 217.642C192.478 217.437 192.739 217.147 192.926 216.774C193.122 216.401 193.22 215.967 193.22 215.472C193.22 214.977 193.122 214.548 192.926 214.184C192.739 213.811 192.478 213.521 192.142 213.316C191.815 213.101 191.437 212.994 191.008 212.994C190.569 212.994 190.182 213.101 189.846 213.316C189.519 213.521 189.262 213.811 189.076 214.184C188.889 214.548 188.796 214.977 188.796 215.472C188.796 215.967 188.889 216.401 189.076 216.774C189.262 217.147 189.519 217.437 189.846 217.642C190.182 217.847 190.569 217.95 191.008 217.95ZM198.907 219C198.459 219 198.072 218.93 197.745 218.79C197.418 218.65 197.166 218.417 196.989 218.09C196.812 217.763 196.723 217.32 196.723 216.76V213.134H195.505V211.944H196.723L196.891 210.18H198.123V211.944H200.125V213.134H198.123V216.774C198.123 217.175 198.207 217.451 198.375 217.6C198.543 217.74 198.832 217.81 199.243 217.81H200.055V219H198.907ZM201.767 219V211.944H203.167V219H201.767ZM202.481 210.614C202.21 210.614 201.986 210.53 201.809 210.362C201.641 210.194 201.557 209.979 201.557 209.718C201.557 209.466 201.641 209.261 201.809 209.102C201.986 208.934 202.21 208.85 202.481 208.85C202.742 208.85 202.961 208.934 203.139 209.102C203.316 209.261 203.405 209.466 203.405 209.718C203.405 209.979 203.316 210.194 203.139 210.362C202.961 210.53 202.742 210.614 202.481 210.614ZM208.389 219.168C207.726 219.168 207.129 219.014 206.597 218.706C206.074 218.398 205.659 217.969 205.351 217.418C205.052 216.858 204.903 216.214 204.903 215.486C204.903 214.739 205.057 214.091 205.365 213.54C205.673 212.98 206.093 212.546 206.625 212.238C207.157 211.93 207.754 211.776 208.417 211.776C209.089 211.776 209.686 211.93 210.209 212.238C210.731 212.546 211.142 212.975 211.441 213.526C211.749 214.077 211.903 214.725 211.903 215.472C211.903 216.219 211.749 216.867 211.441 217.418C211.142 217.969 210.727 218.398 210.195 218.706C209.663 219.014 209.061 219.168 208.389 219.168ZM208.389 217.964C208.771 217.964 209.117 217.871 209.425 217.684C209.742 217.497 209.994 217.222 210.181 216.858C210.377 216.485 210.475 216.023 210.475 215.472C210.475 214.921 210.381 214.464 210.195 214.1C210.008 213.727 209.756 213.447 209.439 213.26C209.131 213.073 208.79 212.98 208.417 212.98C208.043 212.98 207.698 213.073 207.381 213.26C207.063 213.447 206.807 213.727 206.611 214.1C206.424 214.464 206.331 214.921 206.331 215.472C206.331 216.023 206.424 216.485 206.611 216.858C206.807 217.222 207.059 217.497 207.367 217.684C207.684 217.871 208.025 217.964 208.389 217.964ZM213.55 219V211.944H214.81L214.894 213.148C215.118 212.728 215.435 212.397 215.846 212.154C216.256 211.902 216.728 211.776 217.26 211.776C217.82 211.776 218.3 211.888 218.702 212.112C219.103 212.336 219.416 212.677 219.64 213.134C219.864 213.582 219.976 214.147 219.976 214.828V219H218.576V214.968C218.576 214.315 218.431 213.82 218.142 213.484C217.852 213.148 217.432 212.98 216.882 212.98C216.518 212.98 216.191 213.069 215.902 213.246C215.612 213.414 215.379 213.666 215.202 214.002C215.034 214.338 214.95 214.749 214.95 215.234V219H213.55Z" fill="#080A29"/>
<rect x="49.5" y="232.5" width="349" height="51" rx="7.5" fill="white"/>
<rect x="49.5" y="232.5" width="349" height="51" rx="7.5" stroke="#BDBDBD"/>
<path d="M66.1186 263V252.818H72.5021V254.141H67.6548V257.243H72.169V258.56H67.6548V261.678H72.5618V263H66.1186ZM74.4348 263V255.364H75.8617V256.607H75.9561C76.1152 256.186 76.3754 255.857 76.7367 255.622C77.098 255.384 77.5305 255.264 78.0343 255.264C78.5447 255.264 78.9722 255.384 79.3169 255.622C79.665 255.861 79.9218 256.189 80.0875 256.607H80.1671C80.3494 256.199 80.6394 255.874 81.0371 255.632C81.4348 255.387 81.9088 255.264 82.459 255.264C83.1517 255.264 83.7168 255.481 84.1543 255.915C84.5951 256.35 84.8155 257.004 84.8155 257.879V263H83.329V258.018C83.329 257.501 83.1882 257.127 82.9064 256.895C82.6247 256.663 82.2883 256.547 81.8972 256.547C81.4133 256.547 81.0371 256.696 80.7686 256.994C80.5002 257.289 80.3659 257.669 80.3659 258.133V263H78.8844V257.924C78.8844 257.51 78.7551 257.177 78.4966 256.925C78.2381 256.673 77.9017 256.547 77.4874 256.547C77.2057 256.547 76.9455 256.621 76.7069 256.771C76.4715 256.916 76.281 257.12 76.1351 257.382C75.9926 257.644 75.9213 257.947 75.9213 258.292V263H74.4348ZM89.0302 263.169C88.5463 263.169 88.1088 263.08 87.7177 262.901C87.3266 262.718 87.0167 262.455 86.788 262.11C86.5626 261.765 86.4499 261.343 86.4499 260.842C86.4499 260.411 86.5328 260.057 86.6985 259.778C86.8642 259.5 87.0879 259.28 87.3697 259.117C87.6514 258.955 87.9663 258.832 88.3143 258.749C88.6623 258.666 89.0169 258.603 89.3782 258.56C89.8356 258.507 90.2068 258.464 90.4918 258.431C90.7769 258.395 90.984 258.337 91.1133 258.257C91.2425 258.178 91.3072 258.048 91.3072 257.869V257.835C91.3072 257.4 91.1845 257.064 90.9393 256.825C90.6973 256.587 90.3361 256.467 89.8555 256.467C89.355 256.467 88.9606 256.578 88.6722 256.8C88.3872 257.019 88.19 257.263 88.0806 257.531L86.6836 257.213C86.8493 256.749 87.0913 256.375 87.4094 256.089C87.7309 255.801 88.1005 255.592 88.5181 255.463C88.9357 255.33 89.3749 255.264 89.8356 255.264C90.1405 255.264 90.4637 255.301 90.805 255.374C91.1497 255.443 91.4712 255.572 91.7695 255.761C92.0711 255.95 92.3181 256.22 92.5103 256.572C92.7025 256.92 92.7987 257.372 92.7987 257.929V263H91.3469V261.956H91.2873C91.1912 262.148 91.047 262.337 90.8548 262.523C90.6625 262.708 90.4156 262.862 90.114 262.985C89.8124 263.108 89.4511 263.169 89.0302 263.169ZM89.3533 261.976C89.7643 261.976 90.1156 261.895 90.4073 261.732C90.7023 261.57 90.926 261.358 91.0785 261.096C91.2343 260.831 91.3121 260.547 91.3121 260.246V259.261C91.2591 259.314 91.1564 259.364 91.0039 259.411C90.8548 259.454 90.6841 259.492 90.4918 259.525C90.2996 259.555 90.1123 259.583 89.93 259.609C89.7478 259.633 89.5953 259.652 89.4727 259.669C89.1843 259.705 88.9208 259.767 88.6822 259.853C88.4469 259.939 88.2579 260.063 88.1154 260.226C87.9762 260.385 87.9066 260.597 87.9066 260.862C87.9066 261.23 88.0425 261.509 88.3143 261.697C88.5861 261.883 88.9324 261.976 89.3533 261.976ZM94.7786 263V255.364H96.2651V263H94.7786ZM95.5293 254.185C95.2708 254.185 95.0487 254.099 94.8631 253.927C94.6808 253.751 94.5897 253.542 94.5897 253.3C94.5897 253.055 94.6808 252.846 94.8631 252.674C95.0487 252.498 95.2708 252.411 95.5293 252.411C95.7878 252.411 96.0082 252.498 96.1905 252.674C96.3761 252.846 96.4689 253.055 96.4689 253.3C96.4689 253.542 96.3761 253.751 96.1905 253.927C96.0082 254.099 95.7878 254.185 95.5293 254.185ZM99.7514 252.818V263H98.2649V252.818H99.7514Z" fill="#8C8F97"/>
<path d="M52.304 307V298.348H49.406V297.2H56.616V298.348H53.704V307H52.304ZM59.208 307.168C58.6293 307.168 58.1486 307.07 57.766 306.874C57.3833 306.678 57.0986 306.417 56.912 306.09C56.7253 305.754 56.632 305.395 56.632 305.012C56.632 304.545 56.7533 304.149 56.996 303.822C57.2386 303.486 57.584 303.229 58.032 303.052C58.48 302.875 59.0166 302.786 59.642 302.786H61.476C61.476 302.375 61.4153 302.035 61.294 301.764C61.1726 301.493 60.9906 301.293 60.748 301.162C60.5146 301.022 60.216 300.952 59.852 300.952C59.432 300.952 59.0726 301.055 58.774 301.26C58.4753 301.456 58.2886 301.75 58.214 302.142H56.814C56.87 301.647 57.038 301.227 57.318 300.882C57.6073 300.527 57.976 300.257 58.424 300.07C58.872 299.874 59.348 299.776 59.852 299.776C60.5146 299.776 61.07 299.893 61.518 300.126C61.966 300.359 62.302 300.691 62.526 301.12C62.7593 301.54 62.876 302.044 62.876 302.632V307H61.658L61.546 305.81C61.4433 305.997 61.322 306.174 61.182 306.342C61.042 306.51 60.874 306.655 60.678 306.776C60.4913 306.897 60.272 306.991 60.02 307.056C59.7773 307.131 59.5066 307.168 59.208 307.168ZM59.474 306.034C59.7726 306.034 60.0433 305.973 60.286 305.852C60.5286 305.731 60.734 305.567 60.902 305.362C61.0793 305.147 61.21 304.909 61.294 304.648C61.3873 304.377 61.4386 304.102 61.448 303.822V303.78H59.782C59.3806 303.78 59.054 303.831 58.802 303.934C58.5593 304.027 58.382 304.158 58.27 304.326C58.158 304.494 58.102 304.69 58.102 304.914C58.102 305.147 58.1533 305.348 58.256 305.516C58.368 305.675 58.5266 305.801 58.732 305.894C58.9373 305.987 59.1846 306.034 59.474 306.034ZM64.6629 307V299.944H65.9229L66.0489 301.274C66.2076 300.957 66.4129 300.691 66.6649 300.476C66.9169 300.252 67.2109 300.079 67.5469 299.958C67.8923 299.837 68.2843 299.776 68.7229 299.776V301.26H68.2189C67.9296 301.26 67.6543 301.297 67.3929 301.372C67.1316 301.437 66.8983 301.554 66.6929 301.722C66.4969 301.89 66.3429 302.119 66.2309 302.408C66.1189 302.697 66.0629 303.057 66.0629 303.486V307H64.6629ZM72.7146 310.248C72.0706 310.248 71.5012 310.164 71.0066 309.996C70.5119 309.837 70.1292 309.59 69.8586 309.254C69.5879 308.918 69.4526 308.507 69.4526 308.022C69.4526 307.77 69.5086 307.513 69.6206 307.252C69.7326 307 69.9146 306.757 70.1666 306.524C70.4186 306.291 70.7592 306.081 71.1886 305.894L71.9726 306.524C71.4966 306.701 71.1746 306.911 71.0066 307.154C70.8479 307.406 70.7686 307.649 70.7686 307.882C70.7686 308.162 70.8526 308.395 71.0206 308.582C71.1886 308.769 71.4172 308.909 71.7066 309.002C72.0052 309.095 72.3412 309.142 72.7146 309.142C73.0786 309.142 73.3959 309.091 73.6666 308.988C73.9372 308.885 74.1472 308.741 74.2966 308.554C74.4459 308.367 74.5206 308.148 74.5206 307.896C74.5206 307.597 74.4086 307.345 74.1846 307.14C73.9606 306.944 73.5312 306.827 72.8966 306.79C72.3646 306.753 71.9119 306.701 71.5386 306.636C71.1746 306.571 70.8619 306.491 70.6006 306.398C70.3486 306.305 70.1339 306.202 69.9566 306.09C69.7886 305.978 69.6439 305.861 69.5226 305.74V305.418L70.9226 303.976L72.0566 304.368L70.5306 305.782L70.8246 305.152C70.9272 305.217 71.0252 305.283 71.1186 305.348C71.2119 305.404 71.3379 305.455 71.4966 305.502C71.6552 305.549 71.8699 305.591 72.1406 305.628C72.4112 305.665 72.7659 305.703 73.2046 305.74C73.8392 305.787 74.3479 305.899 74.7306 306.076C75.1226 306.253 75.4072 306.491 75.5846 306.79C75.7619 307.089 75.8506 307.443 75.8506 307.854C75.8506 308.255 75.7386 308.638 75.5146 309.002C75.2999 309.366 74.9592 309.665 74.4926 309.898C74.0352 310.131 73.4426 310.248 72.7146 310.248ZM72.7146 304.83C72.1172 304.83 71.6086 304.718 71.1886 304.494C70.7779 304.27 70.4606 303.967 70.2366 303.584C70.0219 303.201 69.9146 302.777 69.9146 302.31C69.9146 301.834 70.0219 301.409 70.2366 301.036C70.4606 300.653 70.7826 300.35 71.2026 300.126C71.6226 299.893 72.1266 299.776 72.7146 299.776C73.3026 299.776 73.8019 299.893 74.2126 300.126C74.6326 300.35 74.9499 300.653 75.1646 301.036C75.3886 301.409 75.5006 301.834 75.5006 302.31C75.5006 302.777 75.3886 303.201 75.1646 303.584C74.9499 303.967 74.6326 304.27 74.2126 304.494C73.8019 304.718 73.3026 304.83 72.7146 304.83ZM72.7146 303.71C73.1719 303.71 73.5359 303.593 73.8066 303.36C74.0772 303.117 74.2126 302.767 74.2126 302.31C74.2126 301.853 74.0772 301.507 73.8066 301.274C73.5359 301.031 73.1719 300.91 72.7146 300.91C72.2572 300.91 71.8886 301.031 71.6086 301.274C71.3286 301.507 71.1886 301.853 71.1886 302.31C71.1886 302.767 71.3286 303.117 71.6086 303.36C71.8886 303.593 72.2572 303.71 72.7146 303.71ZM73.8626 301.05L73.5266 299.944H76.4246V300.91L73.8626 301.05ZM80.7475 307.168C80.0755 307.168 79.4782 307.014 78.9555 306.706C78.4328 306.398 78.0222 305.969 77.7235 305.418C77.4342 304.867 77.2895 304.228 77.2895 303.5C77.2895 302.753 77.4342 302.105 77.7235 301.554C78.0222 300.994 78.4328 300.56 78.9555 300.252C79.4782 299.935 80.0848 299.776 80.7755 299.776C81.4662 299.776 82.0588 299.93 82.5535 300.238C83.0482 300.546 83.4308 300.957 83.7015 301.47C83.9722 301.974 84.1075 302.534 84.1075 303.15C84.1075 303.243 84.1028 303.346 84.0935 303.458C84.0935 303.561 84.0888 303.677 84.0795 303.808H78.3115V302.814H82.7075C82.6795 302.226 82.4835 301.769 82.1195 301.442C81.7555 301.106 81.3028 300.938 80.7615 300.938C80.3788 300.938 80.0288 301.027 79.7115 301.204C79.3942 301.372 79.1375 301.624 78.9415 301.96C78.7548 302.287 78.6615 302.702 78.6615 303.206V303.598C78.6615 304.121 78.7548 304.564 78.9415 304.928C79.1375 305.283 79.3942 305.553 79.7115 305.74C80.0288 305.917 80.3742 306.006 80.7475 306.006C81.1955 306.006 81.5642 305.908 81.8535 305.712C82.1428 305.516 82.3575 305.25 82.4975 304.914H83.8975C83.7762 305.343 83.5708 305.731 83.2815 306.076C82.9922 306.412 82.6328 306.678 82.2035 306.874C81.7835 307.07 81.2982 307.168 80.7475 307.168ZM88.3835 307C87.9355 307 87.5482 306.93 87.2215 306.79C86.8949 306.65 86.6429 306.417 86.4655 306.09C86.2882 305.763 86.1995 305.32 86.1995 304.76V301.134H84.9815V299.944H86.1995L86.3675 298.18H87.5995V299.944H89.6015V301.134H87.5995V304.774C87.5995 305.175 87.6835 305.451 87.8515 305.6C88.0195 305.74 88.3089 305.81 88.7195 305.81H89.5315V307H88.3835ZM94.1674 307L97.7654 297.2H99.2914L102.889 307H101.391L98.5214 298.88L95.6374 307H94.1674ZM95.7914 304.578L96.1834 303.458H100.789L101.181 304.578H95.7914ZM104.216 307V299.944H105.476L105.574 300.938C105.798 300.574 106.096 300.289 106.47 300.084C106.843 299.879 107.263 299.776 107.73 299.776C108.084 299.776 108.406 299.827 108.696 299.93C108.985 300.023 109.242 300.168 109.466 300.364C109.69 300.56 109.872 300.803 110.012 301.092C110.264 300.681 110.6 300.359 111.02 300.126C111.449 299.893 111.902 299.776 112.378 299.776C112.947 299.776 113.437 299.893 113.848 300.126C114.258 300.35 114.571 300.691 114.786 301.148C115 301.596 115.108 302.156 115.108 302.828V307H113.722V302.968C113.722 302.315 113.586 301.82 113.316 301.484C113.054 301.148 112.667 300.98 112.154 300.98C111.808 300.98 111.5 301.069 111.23 301.246C110.959 301.423 110.744 301.68 110.586 302.016C110.436 302.352 110.362 302.763 110.362 303.248V307H108.962V302.968C108.962 302.315 108.826 301.82 108.556 301.484C108.294 301.148 107.907 300.98 107.394 300.98C107.067 300.98 106.768 301.069 106.498 301.246C106.227 301.423 106.012 301.68 105.854 302.016C105.695 302.352 105.616 302.763 105.616 303.248V307H104.216ZM120.137 307.168C119.474 307.168 118.877 307.014 118.345 306.706C117.822 306.398 117.407 305.969 117.099 305.418C116.8 304.858 116.651 304.214 116.651 303.486C116.651 302.739 116.805 302.091 117.113 301.54C117.421 300.98 117.841 300.546 118.373 300.238C118.905 299.93 119.502 299.776 120.165 299.776C120.837 299.776 121.434 299.93 121.957 300.238C122.48 300.546 122.89 300.975 123.189 301.526C123.497 302.077 123.651 302.725 123.651 303.472C123.651 304.219 123.497 304.867 123.189 305.418C122.89 305.969 122.475 306.398 121.943 306.706C121.411 307.014 120.809 307.168 120.137 307.168ZM120.137 305.964C120.52 305.964 120.865 305.871 121.173 305.684C121.49 305.497 121.742 305.222 121.929 304.858C122.125 304.485 122.223 304.023 122.223 303.472C122.223 302.921 122.13 302.464 121.943 302.1C121.756 301.727 121.504 301.447 121.187 301.26C120.879 301.073 120.538 300.98 120.165 300.98C119.792 300.98 119.446 301.073 119.129 301.26C118.812 301.447 118.555 301.727 118.359 302.1C118.172 302.464 118.079 302.921 118.079 303.472C118.079 304.023 118.172 304.485 118.359 304.858C118.555 305.222 118.807 305.497 119.115 305.684C119.432 305.871 119.773 305.964 120.137 305.964ZM127.888 307.168C127.337 307.168 126.856 307.056 126.446 306.832C126.044 306.608 125.732 306.272 125.508 305.824C125.293 305.376 125.186 304.811 125.186 304.13V299.944H126.586V303.976C126.586 304.639 126.73 305.138 127.02 305.474C127.309 305.81 127.724 305.978 128.266 305.978C128.63 305.978 128.956 305.889 129.246 305.712C129.544 305.535 129.778 305.278 129.946 304.942C130.114 304.606 130.198 304.195 130.198 303.71V299.944H131.598V307H130.352L130.254 305.796C130.039 306.225 129.726 306.561 129.316 306.804C128.905 307.047 128.429 307.168 127.888 307.168ZM133.515 307V299.944H134.775L134.859 301.148C135.083 300.728 135.4 300.397 135.811 300.154C136.221 299.902 136.693 299.776 137.225 299.776C137.785 299.776 138.265 299.888 138.667 300.112C139.068 300.336 139.381 300.677 139.605 301.134C139.829 301.582 139.941 302.147 139.941 302.828V307H138.541V302.968C138.541 302.315 138.396 301.82 138.107 301.484C137.817 301.148 137.397 300.98 136.847 300.98C136.483 300.98 136.156 301.069 135.867 301.246C135.577 301.414 135.344 301.666 135.167 302.002C134.999 302.338 134.915 302.749 134.915 303.234V307H133.515ZM144.643 307C144.195 307 143.808 306.93 143.481 306.79C143.155 306.65 142.903 306.417 142.725 306.09C142.548 305.763 142.459 305.32 142.459 304.76V301.134H141.241V299.944H142.459L142.627 298.18H143.859V299.944H145.861V301.134H143.859V304.774C143.859 305.175 143.943 305.451 144.111 305.6C144.279 305.74 144.569 305.81 144.979 305.81H145.791V307H144.643ZM150.135 307.168C149.538 307.168 149.015 307.07 148.567 306.874C148.119 306.678 147.764 306.403 147.503 306.048C147.242 305.693 147.083 305.278 147.027 304.802H148.455C148.502 305.026 148.59 305.231 148.721 305.418C148.861 305.605 149.048 305.754 149.281 305.866C149.524 305.978 149.808 306.034 150.135 306.034C150.443 306.034 150.695 305.992 150.891 305.908C151.096 305.815 151.246 305.693 151.339 305.544C151.432 305.385 151.479 305.217 151.479 305.04C151.479 304.779 151.414 304.583 151.283 304.452C151.162 304.312 150.975 304.205 150.723 304.13C150.48 304.046 150.186 303.971 149.841 303.906C149.514 303.85 149.197 303.775 148.889 303.682C148.59 303.579 148.32 303.453 148.077 303.304C147.844 303.155 147.657 302.968 147.517 302.744C147.377 302.511 147.307 302.226 147.307 301.89C147.307 301.489 147.414 301.129 147.629 300.812C147.844 300.485 148.147 300.233 148.539 300.056C148.94 299.869 149.412 299.776 149.953 299.776C150.737 299.776 151.367 299.963 151.843 300.336C152.319 300.709 152.599 301.237 152.683 301.918H151.325C151.288 301.601 151.148 301.358 150.905 301.19C150.662 301.013 150.34 300.924 149.939 300.924C149.538 300.924 149.23 301.003 149.015 301.162C148.8 301.321 148.693 301.531 148.693 301.792C148.693 301.96 148.754 302.109 148.875 302.24C148.996 302.371 149.174 302.483 149.407 302.576C149.65 302.66 149.944 302.739 150.289 302.814C150.784 302.907 151.227 303.024 151.619 303.164C152.011 303.304 152.324 303.509 152.557 303.78C152.79 304.051 152.907 304.438 152.907 304.942C152.916 305.381 152.804 305.768 152.571 306.104C152.347 306.44 152.025 306.701 151.605 306.888C151.194 307.075 150.704 307.168 150.135 307.168Z" fill="#080A29"/>
<rect x="49.5" y="320.5" width="349" height="51" rx="7.5" fill="white"/>
<rect x="49.5" y="320.5" width="349" height="51" rx="7.5" stroke="#BDBDBD"/>
<path d="M66.1186 351V340.818H72.5021V342.141H67.6548V345.243H72.169V346.56H67.6548V349.678H72.5618V351H66.1186ZM74.4348 351V343.364H75.8617V344.607H75.9561C76.1152 344.186 76.3754 343.857 76.7367 343.622C77.098 343.384 77.5305 343.264 78.0343 343.264C78.5447 343.264 78.9722 343.384 79.3169 343.622C79.665 343.861 79.9218 344.189 80.0875 344.607H80.1671C80.3494 344.199 80.6394 343.874 81.0371 343.632C81.4348 343.387 81.9088 343.264 82.459 343.264C83.1517 343.264 83.7168 343.481 84.1543 343.915C84.5951 344.35 84.8155 345.004 84.8155 345.879V351H83.329V346.018C83.329 345.501 83.1882 345.127 82.9064 344.895C82.6247 344.663 82.2883 344.547 81.8972 344.547C81.4133 344.547 81.0371 344.696 80.7686 344.994C80.5002 345.289 80.3659 345.669 80.3659 346.133V351H78.8844V345.924C78.8844 345.51 78.7551 345.177 78.4966 344.925C78.2381 344.673 77.9017 344.547 77.4874 344.547C77.2057 344.547 76.9455 344.621 76.7069 344.771C76.4715 344.916 76.281 345.12 76.1351 345.382C75.9926 345.644 75.9213 345.947 75.9213 346.292V351H74.4348ZM89.0302 351.169C88.5463 351.169 88.1088 351.08 87.7177 350.901C87.3266 350.718 87.0167 350.455 86.788 350.11C86.5626 349.765 86.4499 349.343 86.4499 348.842C86.4499 348.411 86.5328 348.057 86.6985 347.778C86.8642 347.5 87.0879 347.28 87.3697 347.117C87.6514 346.955 87.9663 346.832 88.3143 346.749C88.6623 346.666 89.0169 346.603 89.3782 346.56C89.8356 346.507 90.2068 346.464 90.4918 346.431C90.7769 346.395 90.984 346.337 91.1133 346.257C91.2425 346.178 91.3072 346.048 91.3072 345.869V345.835C91.3072 345.4 91.1845 345.064 90.9393 344.825C90.6973 344.587 90.3361 344.467 89.8555 344.467C89.355 344.467 88.9606 344.578 88.6722 344.8C88.3872 345.019 88.19 345.263 88.0806 345.531L86.6836 345.213C86.8493 344.749 87.0913 344.375 87.4094 344.089C87.7309 343.801 88.1005 343.592 88.5181 343.463C88.9357 343.33 89.3749 343.264 89.8356 343.264C90.1405 343.264 90.4637 343.301 90.805 343.374C91.1497 343.443 91.4712 343.572 91.7695 343.761C92.0711 343.95 92.3181 344.22 92.5103 344.572C92.7025 344.92 92.7987 345.372 92.7987 345.929V351H91.3469V349.956H91.2873C91.1912 350.148 91.047 350.337 90.8548 350.523C90.6625 350.708 90.4156 350.862 90.114 350.985C89.8124 351.108 89.4511 351.169 89.0302 351.169ZM89.3533 349.976C89.7643 349.976 90.1156 349.895 90.4073 349.732C90.7023 349.57 90.926 349.358 91.0785 349.096C91.2343 348.831 91.3121 348.547 91.3121 348.246V347.261C91.2591 347.314 91.1564 347.364 91.0039 347.411C90.8548 347.454 90.6841 347.492 90.4918 347.525C90.2996 347.555 90.1123 347.583 89.93 347.609C89.7478 347.633 89.5953 347.652 89.4727 347.669C89.1843 347.705 88.9208 347.767 88.6822 347.853C88.4469 347.939 88.2579 348.063 88.1154 348.226C87.9762 348.385 87.9066 348.597 87.9066 348.862C87.9066 349.23 88.0425 349.509 88.3143 349.697C88.5861 349.883 88.9324 349.976 89.3533 349.976ZM94.7786 351V343.364H96.2651V351H94.7786ZM95.5293 342.185C95.2708 342.185 95.0487 342.099 94.8631 341.927C94.6808 341.751 94.5897 341.542 94.5897 341.3C94.5897 341.055 94.6808 340.846 94.8631 340.674C95.0487 340.498 95.2708 340.411 95.5293 340.411C95.7878 340.411 96.0082 340.498 96.1905 340.674C96.3761 340.846 96.4689 341.055 96.4689 341.3C96.4689 341.542 96.3761 341.751 96.1905 341.927C96.0082 342.099 95.7878 342.185 95.5293 342.185ZM99.7514 340.818V351H98.2649V340.818H99.7514Z" fill="#8C8F97"/>
<rect x="49.5" y="388.5" width="349" height="51" rx="25.5" fill="url(#paint0_linear_35_3728)"/>
<rect x="49.5" y="388.5" width="349" height="51" rx="25.5" stroke="url(#paint1_linear_35_3728)"/>
<path d="M183.332 419.192C182.511 419.192 181.791 419.048 181.172 418.76C180.553 418.461 180.073 418.045 179.732 417.512C179.391 416.979 179.22 416.355 179.22 415.64H180.9C180.911 416.045 181.007 416.419 181.188 416.76C181.38 417.091 181.652 417.357 182.004 417.56C182.367 417.752 182.809 417.848 183.332 417.848C183.78 417.848 184.164 417.773 184.484 417.624C184.815 417.475 185.065 417.272 185.236 417.016C185.407 416.749 185.492 416.445 185.492 416.104C185.492 415.709 185.401 415.384 185.22 415.128C185.039 414.872 184.793 414.664 184.484 414.504C184.185 414.333 183.833 414.184 183.428 414.056C183.033 413.928 182.617 413.789 182.18 413.64C181.295 413.352 180.633 412.979 180.196 412.52C179.769 412.061 179.556 411.464 179.556 410.728C179.556 410.099 179.705 409.555 180.004 409.096C180.303 408.627 180.719 408.264 181.252 408.008C181.796 407.741 182.436 407.608 183.172 407.608C183.897 407.608 184.532 407.741 185.076 408.008C185.62 408.275 186.047 408.643 186.356 409.112C186.665 409.581 186.82 410.131 186.82 410.76H185.124C185.124 410.472 185.049 410.189 184.9 409.912C184.751 409.635 184.527 409.411 184.228 409.24C183.929 409.059 183.561 408.968 183.124 408.968C182.761 408.957 182.436 409.016 182.148 409.144C181.86 409.272 181.636 409.459 181.476 409.704C181.316 409.949 181.236 410.243 181.236 410.584C181.236 410.925 181.305 411.203 181.444 411.416C181.593 411.619 181.807 411.795 182.084 411.944C182.361 412.093 182.681 412.232 183.044 412.36C183.417 412.477 183.828 412.611 184.276 412.76C184.831 412.941 185.321 413.165 185.748 413.432C186.185 413.688 186.527 414.024 186.772 414.44C187.028 414.845 187.156 415.368 187.156 416.008C187.156 416.563 187.012 417.08 186.724 417.56C186.436 418.04 186.009 418.435 185.444 418.744C184.879 419.043 184.175 419.192 183.332 419.192ZM192.307 419C191.795 419 191.352 418.92 190.979 418.76C190.605 418.6 190.317 418.333 190.115 417.96C189.912 417.587 189.811 417.08 189.811 416.44V412.296H188.419V410.936H189.811L190.003 408.92H191.411V410.936H193.699V412.296H191.411V416.456C191.411 416.915 191.507 417.229 191.699 417.4C191.891 417.56 192.221 417.64 192.691 417.64H193.619V419H192.307ZM198.135 419.192C197.474 419.192 196.924 419.08 196.487 418.856C196.05 418.632 195.724 418.333 195.511 417.96C195.298 417.576 195.191 417.165 195.191 416.728C195.191 416.195 195.33 415.741 195.607 415.368C195.884 414.984 196.279 414.691 196.791 414.488C197.303 414.285 197.916 414.184 198.631 414.184H200.727C200.727 413.715 200.658 413.325 200.519 413.016C200.38 412.707 200.172 412.477 199.895 412.328C199.628 412.168 199.287 412.088 198.871 412.088C198.391 412.088 197.98 412.205 197.639 412.44C197.298 412.664 197.084 413 196.999 413.448H195.399C195.463 412.883 195.655 412.403 195.975 412.008C196.306 411.603 196.727 411.293 197.239 411.08C197.751 410.856 198.295 410.744 198.871 410.744C199.628 410.744 200.263 410.877 200.775 411.144C201.287 411.411 201.671 411.789 201.927 412.28C202.194 412.76 202.327 413.336 202.327 414.008V419H200.935L200.807 417.64C200.69 417.853 200.551 418.056 200.391 418.248C200.231 418.44 200.039 418.605 199.815 418.744C199.602 418.883 199.351 418.989 199.063 419.064C198.786 419.149 198.476 419.192 198.135 419.192ZM198.439 417.896C198.78 417.896 199.09 417.827 199.367 417.688C199.644 417.549 199.879 417.363 200.071 417.128C200.274 416.883 200.423 416.611 200.519 416.312C200.626 416.003 200.684 415.688 200.695 415.368V415.32H198.791C198.332 415.32 197.959 415.379 197.671 415.496C197.394 415.603 197.191 415.752 197.063 415.944C196.935 416.136 196.871 416.36 196.871 416.616C196.871 416.883 196.93 417.112 197.047 417.304C197.175 417.485 197.356 417.629 197.591 417.736C197.826 417.843 198.108 417.896 198.439 417.896ZM204.369 419V410.936H205.809L205.953 412.456C206.135 412.093 206.369 411.789 206.657 411.544C206.945 411.288 207.281 411.091 207.665 410.952C208.06 410.813 208.508 410.744 209.009 410.744V412.44H208.433C208.103 412.44 207.788 412.483 207.489 412.568C207.191 412.643 206.924 412.776 206.689 412.968C206.465 413.16 206.289 413.421 206.161 413.752C206.033 414.083 205.969 414.493 205.969 414.984V419H204.369ZM213.807 419C213.295 419 212.852 418.92 212.479 418.76C212.105 418.6 211.817 418.333 211.615 417.96C211.412 417.587 211.311 417.08 211.311 416.44V412.296H209.919V410.936H211.311L211.503 408.92H212.911V410.936H215.199V412.296H212.911V416.456C212.911 416.915 213.007 417.229 213.199 417.4C213.391 417.56 213.721 417.64 214.191 417.64H215.119V419H213.807ZM224.801 419.192C223.979 419.192 223.259 419.048 222.641 418.76C222.022 418.461 221.542 418.045 221.201 417.512C220.859 416.979 220.689 416.355 220.689 415.64H222.369C222.379 416.045 222.475 416.419 222.657 416.76C222.849 417.091 223.121 417.357 223.473 417.56C223.835 417.752 224.278 417.848 224.801 417.848C225.249 417.848 225.633 417.773 225.953 417.624C226.283 417.475 226.534 417.272 226.705 417.016C226.875 416.749 226.961 416.445 226.961 416.104C226.961 415.709 226.87 415.384 226.689 415.128C226.507 414.872 226.262 414.664 225.953 414.504C225.654 414.333 225.302 414.184 224.897 414.056C224.502 413.928 224.086 413.789 223.649 413.64C222.763 413.352 222.102 412.979 221.665 412.52C221.238 412.061 221.025 411.464 221.025 410.728C221.025 410.099 221.174 409.555 221.473 409.096C221.771 408.627 222.187 408.264 222.721 408.008C223.265 407.741 223.905 407.608 224.641 407.608C225.366 407.608 226.001 407.741 226.545 408.008C227.089 408.275 227.515 408.643 227.825 409.112C228.134 409.581 228.289 410.131 228.289 410.76H226.593C226.593 410.472 226.518 410.189 226.369 409.912C226.219 409.635 225.995 409.411 225.697 409.24C225.398 409.059 225.03 408.968 224.593 408.968C224.23 408.957 223.905 409.016 223.617 409.144C223.329 409.272 223.105 409.459 222.945 409.704C222.785 409.949 222.705 410.243 222.705 410.584C222.705 410.925 222.774 411.203 222.913 411.416C223.062 411.619 223.275 411.795 223.553 411.944C223.83 412.093 224.15 412.232 224.513 412.36C224.886 412.477 225.297 412.611 225.745 412.76C226.299 412.941 226.79 413.165 227.217 413.432C227.654 413.688 227.995 414.024 228.241 414.44C228.497 414.845 228.625 415.368 228.625 416.008C228.625 416.563 228.481 417.08 228.193 417.56C227.905 418.04 227.478 418.435 226.913 418.744C226.347 419.043 225.643 419.192 224.801 419.192ZM233.119 419.192C232.458 419.192 231.909 419.08 231.471 418.856C231.034 418.632 230.709 418.333 230.495 417.96C230.282 417.576 230.175 417.165 230.175 416.728C230.175 416.195 230.314 415.741 230.591 415.368C230.869 414.984 231.263 414.691 231.775 414.488C232.287 414.285 232.901 414.184 233.615 414.184H235.711C235.711 413.715 235.642 413.325 235.503 413.016C235.365 412.707 235.157 412.477 234.879 412.328C234.613 412.168 234.271 412.088 233.855 412.088C233.375 412.088 232.965 412.205 232.623 412.44C232.282 412.664 232.069 413 231.983 413.448H230.383C230.447 412.883 230.639 412.403 230.959 412.008C231.29 411.603 231.711 411.293 232.223 411.08C232.735 410.856 233.279 410.744 233.855 410.744C234.613 410.744 235.247 410.877 235.759 411.144C236.271 411.411 236.655 411.789 236.911 412.28C237.178 412.76 237.311 413.336 237.311 414.008V419H235.919L235.791 417.64C235.674 417.853 235.535 418.056 235.375 418.248C235.215 418.44 235.023 418.605 234.799 418.744C234.586 418.883 234.335 418.989 234.047 419.064C233.77 419.149 233.461 419.192 233.119 419.192ZM233.423 417.896C233.765 417.896 234.074 417.827 234.351 417.688C234.629 417.549 234.863 417.363 235.055 417.128C235.258 416.883 235.407 416.611 235.503 416.312C235.61 416.003 235.669 415.688 235.679 415.368V415.32H233.775C233.317 415.32 232.943 415.379 232.655 415.496C232.378 415.603 232.175 415.752 232.047 415.944C231.919 416.136 231.855 416.36 231.855 416.616C231.855 416.883 231.914 417.112 232.031 417.304C232.159 417.485 232.341 417.629 232.575 417.736C232.81 417.843 233.093 417.896 233.423 417.896ZM241.36 419L238.336 410.936H240.016L242.304 417.464L244.608 410.936H246.256L243.248 419H241.36ZM247.809 419V410.936H249.409V419H247.809ZM248.625 409.416C248.316 409.416 248.06 409.32 247.857 409.128C247.665 408.936 247.569 408.691 247.569 408.392C247.569 408.104 247.665 407.869 247.857 407.688C248.06 407.496 248.316 407.4 248.625 407.4C248.924 407.4 249.175 407.496 249.377 407.688C249.58 407.869 249.681 408.104 249.681 408.392C249.681 408.691 249.58 408.936 249.377 409.128C249.175 409.32 248.924 409.416 248.625 409.416ZM251.697 419V410.936H253.137L253.233 412.312C253.489 411.832 253.852 411.453 254.321 411.176C254.791 410.888 255.329 410.744 255.937 410.744C256.577 410.744 257.127 410.872 257.585 411.128C258.044 411.384 258.401 411.773 258.657 412.296C258.913 412.808 259.041 413.453 259.041 414.232V419H257.441V414.392C257.441 413.645 257.276 413.08 256.945 412.696C256.615 412.312 256.135 412.12 255.505 412.12C255.089 412.12 254.716 412.221 254.385 412.424C254.055 412.616 253.788 412.904 253.585 413.288C253.393 413.672 253.297 414.141 253.297 414.696V419H251.697ZM264.368 422.712C263.632 422.712 262.981 422.616 262.416 422.424C261.851 422.243 261.413 421.96 261.104 421.576C260.795 421.192 260.64 420.723 260.64 420.168C260.64 419.88 260.704 419.587 260.832 419.288C260.96 419 261.168 418.723 261.456 418.456C261.744 418.189 262.133 417.949 262.624 417.736L263.52 418.456C262.976 418.659 262.608 418.899 262.416 419.176C262.235 419.464 262.144 419.741 262.144 420.008C262.144 420.328 262.24 420.595 262.432 420.808C262.624 421.021 262.885 421.181 263.216 421.288C263.557 421.395 263.941 421.448 264.368 421.448C264.784 421.448 265.147 421.389 265.456 421.272C265.765 421.155 266.005 420.989 266.176 420.776C266.347 420.563 266.432 420.312 266.432 420.024C266.432 419.683 266.304 419.395 266.048 419.16C265.792 418.936 265.301 418.803 264.576 418.76C263.968 418.717 263.451 418.659 263.024 418.584C262.608 418.509 262.251 418.419 261.952 418.312C261.664 418.205 261.419 418.088 261.216 417.96C261.024 417.832 260.859 417.699 260.72 417.56V417.192L262.32 415.544L263.616 415.992L261.872 417.608L262.208 416.888C262.325 416.963 262.437 417.037 262.544 417.112C262.651 417.176 262.795 417.235 262.976 417.288C263.157 417.341 263.403 417.389 263.712 417.432C264.021 417.475 264.427 417.517 264.928 417.56C265.653 417.613 266.235 417.741 266.672 417.944C267.12 418.147 267.445 418.419 267.648 418.76C267.851 419.101 267.952 419.507 267.952 419.976C267.952 420.435 267.824 420.872 267.568 421.288C267.323 421.704 266.933 422.045 266.4 422.312C265.877 422.579 265.2 422.712 264.368 422.712ZM264.368 416.52C263.685 416.52 263.104 416.392 262.624 416.136C262.155 415.88 261.792 415.533 261.536 415.096C261.291 414.659 261.168 414.173 261.168 413.64C261.168 413.096 261.291 412.611 261.536 412.184C261.792 411.747 262.16 411.4 262.64 411.144C263.12 410.877 263.696 410.744 264.368 410.744C265.04 410.744 265.611 410.877 266.08 411.144C266.56 411.4 266.923 411.747 267.168 412.184C267.424 412.611 267.552 413.096 267.552 413.64C267.552 414.173 267.424 414.659 267.168 415.096C266.923 415.533 266.56 415.88 266.08 416.136C265.611 416.392 265.04 416.52 264.368 416.52ZM264.368 415.24C264.891 415.24 265.307 415.107 265.616 414.84C265.925 414.563 266.08 414.163 266.08 413.64C266.08 413.117 265.925 412.723 265.616 412.456C265.307 412.179 264.891 412.04 264.368 412.04C263.845 412.04 263.424 412.179 263.104 412.456C262.784 412.723 262.624 413.117 262.624 413.64C262.624 414.163 262.784 414.563 263.104 414.84C263.424 415.107 263.845 415.24 264.368 415.24ZM265.68 412.2L265.296 410.936H268.608V412.04L265.68 412.2Z" fill="white"/>
<circle cx="448" cy="22.5" r="22.5" fill="#27A17C"/>
<path d="M440 20H442V14H444L447.42 20H452V14H454V20H456V22H454V24H456V26H454V32H452L448.57 26H444V32H442V26H440V24H442V22H440V20ZM444 20H445.13L444 18.03V20ZM444 22V24H447.42L446.28 22H444ZM452 28V26H450.85L452 28ZM448.56 22L449.71 24H452V22H448.56Z" fill="white"/>
<defs>
<linearGradient id="paint0_linear_35_3728" x1="153" y1="388" x2="360" y2="440" gradientUnits="userSpaceOnUse">
<stop stop-color="#6138FE"/>
<stop offset="1" stop-color="#9346FF"/>
</linearGradient>
<linearGradient id="paint1_linear_35_3728" x1="49" y1="414" x2="399" y2="414" gradientUnits="userSpaceOnUse">
<stop stop-color="white"/>
<stop offset="1" stop-color="white" stop-opacity="0"/>
</linearGradient>
</defs>
</svg>
