<svg width="182" height="32" viewBox="0 0 182 32" fill="none" xmlns="http://www.w3.org/2000/svg">
<path d="M30.517 6.15699C30.5102 5.43912 30.256 4.79304 29.8025 4.23902C29.115 3.40122 28.2215 2.99415 27.132 3.00006C24.437 3.01442 21.7421 3.01949 19.0471 3.02878C18.9331 3.02878 18.8191 3.02878 18.6629 3.02878C19.1426 3.3666 19.5218 3.73989 19.8047 4.19932C19.8925 4.34121 19.9922 4.37246 20.1467 4.37246C22.4692 4.36992 24.7909 4.37161 27.1134 4.37499C28.311 4.37668 29.1361 5.20687 29.1361 6.40529C29.1361 7.97953 29.1353 9.55461 29.1319 11.1288C29.1294 12.3298 28.3059 13.1541 27.105 13.1566C25.7892 13.1591 24.4734 13.1583 23.1576 13.1591C22.2573 13.1591 21.3561 13.1591 20.4558 13.1608C20.14 13.1608 19.8891 13.2875 19.7734 13.5882C19.7489 13.6515 19.7354 13.7208 19.7278 13.7917C19.7574 13.8154 19.7633 13.8584 19.7464 13.8914C19.7464 13.8931 19.7447 13.8939 19.7439 13.8956C19.7405 13.9015 19.7346 13.9049 19.7295 13.9091C19.7295 13.9387 19.727 13.9674 19.7236 13.9961C19.7253 14.0113 19.7236 14.0265 19.7169 14.04C19.7169 14.04 19.7169 14.0417 19.7169 14.0425C19.7084 17.8869 19.6898 21.7322 19.7067 25.5766C19.7118 26.6846 18.809 27.6026 17.695 27.584C16.1047 27.5579 14.5144 27.5798 12.9241 27.5773C11.7519 27.5756 10.9361 26.7581 10.9352 25.5884C10.9327 22.2355 10.9302 18.8827 10.9276 15.5298C10.9276 15.4808 10.9234 15.431 10.9276 15.382C10.9403 15.2511 10.8778 15.2106 10.7537 15.2122C10.3601 15.2165 9.96654 15.2139 9.54173 15.2139C9.54173 15.2959 9.54173 15.3584 9.54173 15.42C9.53835 18.843 9.53159 22.2659 9.53328 25.6889C9.53497 27.5182 10.9656 28.9708 12.8 28.9902C14.4815 29.008 16.1638 28.997 17.8453 28.9928C18.3225 28.9919 18.7853 28.8931 19.211 28.6761C20.4499 28.0443 21.1095 27.0283 21.1137 25.6374C21.1256 22.0455 21.1137 18.4536 21.1112 14.8626C21.1112 14.656 21.2162 14.5527 21.4262 14.5527C23.3476 14.5543 25.2681 14.5645 27.1894 14.5569C29.0838 14.5493 30.5237 13.1068 30.5288 11.215C30.5338 9.52843 30.533 7.84102 30.517 6.15445V6.15699Z" fill="#6138FE"/>
<path d="M19.7625 9.52167C19.7431 8.4398 19.7448 7.35624 19.7625 6.27437C19.7735 5.60802 19.5606 5.01684 19.2034 4.47802C18.5641 3.51523 17.6258 3.04989 16.4916 3.04482C12.0931 3.02708 7.69558 3.03046 3.29717 3.03299C1.45605 3.03468 0.0101811 4.48393 0.00426928 6.3242C-0.00164257 7.97614 -0.00164253 9.62808 0.00595841 11.28C0.0144039 13.1152 1.46956 14.5729 3.30561 14.5738C7.46924 14.5763 14.7053 14.5712 19.1502 14.5678C19.1502 14.5636 19.1519 14.5602 19.1527 14.5569C19.1266 14.556 19.1147 14.5552 19.1249 14.5543C19.1274 14.5366 19.1299 14.5189 19.1325 14.5011C19.059 14.4766 19.3124 14.4513 19.4787 14.4243C19.4787 14.355 19.4813 14.2858 19.4939 14.2165C19.4948 14.2098 19.4956 14.203 19.4965 14.1962C19.5007 14.1743 19.5167 14.1591 19.5362 14.1498C19.5429 14.1185 19.5505 14.0881 19.5573 14.0569C19.5606 14.04 19.564 14.0231 19.5674 14.0062C19.5683 13.9995 19.5699 13.9927 19.5708 13.986C19.5708 13.9843 19.5708 13.9851 19.5708 13.9834C19.5708 13.9792 19.5716 13.9758 19.5725 13.9716C19.575 13.9496 19.5742 13.9277 19.5742 13.9057C19.5666 13.9142 19.5581 13.9235 19.5505 13.9327C19.559 13.9226 19.5674 13.9057 19.575 13.8838C19.575 13.8795 19.575 13.8762 19.575 13.8719C19.5742 13.855 19.5809 13.8398 19.5911 13.8272C19.7532 13.1591 19.7684 9.81472 19.7633 9.52082L19.7625 9.52167ZM18.4602 13.247C14.1057 13.2419 7.6618 13.2368 3.52013 13.2242C3.24987 13.2242 2.9661 13.1912 2.71105 13.1076C1.85045 12.823 1.36484 12.0967 1.36484 11.1331C1.36484 9.55883 1.37159 7.98374 1.37751 6.4095C1.38173 5.24402 2.21952 4.41045 3.38838 4.40539C4.42971 4.40116 5.47104 4.39525 6.51236 4.39356C9.80611 4.38765 13.099 4.38005 16.3927 4.38681C16.6858 4.38681 17.0008 4.44508 17.2685 4.56163C17.9813 4.87242 18.4062 5.43067 18.4239 6.22117C18.4534 7.54204 18.4492 8.86376 18.4568 10.1846C18.4619 11.0469 18.4619 12.3636 18.4602 13.2478V13.247Z" fill="#6138FE"/>
<path d="M10.8904 12.5536H9.55519C9.55181 12.4809 9.54505 12.4134 9.54505 12.3458C9.54759 10.3003 9.54421 8.25482 9.56279 6.20932C9.56532 5.89346 9.66836 5.57844 9.73423 5.26511C9.74352 5.22289 9.80517 5.16377 9.8474 5.16039C10.2663 5.12407 10.6852 5.09198 11.1049 5.0734C11.2392 5.06749 11.257 5.17475 11.1877 5.26258C10.9082 5.61813 10.8896 6.03281 10.8896 6.45593C10.8913 8.48031 10.8896 10.5038 10.8896 12.5527L10.8904 12.5536Z" fill="#6138FE"/>
<path d="M44.1475 24V9.528H39.2035V7.2H51.9475V9.528H47.0035V24H44.1475ZM54.2255 24V6.72H57.1055V13.776C57.5055 13.12 58.0495 12.6 58.7375 12.216C59.4255 11.816 60.2015 11.616 61.0655 11.616C62.0575 11.616 62.8975 11.824 63.5855 12.24C64.2735 12.64 64.7935 13.24 65.1455 14.04C65.5135 14.824 65.6975 15.808 65.6975 16.992V24H62.8415V17.256C62.8415 16.216 62.6175 15.424 62.1695 14.88C61.7375 14.336 61.0735 14.064 60.1775 14.064C59.6015 14.064 59.0815 14.208 58.6175 14.496C58.1535 14.768 57.7855 15.168 57.5135 15.696C57.2415 16.208 57.1055 16.84 57.1055 17.592V24H54.2255ZM68.7567 24V11.904H71.3247L71.5887 14.16C71.8767 13.632 72.2367 13.184 72.6687 12.816C73.1007 12.432 73.6047 12.136 74.1807 11.928C74.7727 11.72 75.4207 11.616 76.1247 11.616V14.664H75.1167C74.6367 14.664 74.1807 14.728 73.7487 14.856C73.3167 14.968 72.9407 15.16 72.6207 15.432C72.3167 15.688 72.0767 16.048 71.9007 16.512C71.7247 16.96 71.6367 17.528 71.6367 18.216V24H68.7567ZM78.4158 24V11.904H81.2958V24H78.4158ZM79.8558 9.984C79.3278 9.984 78.8878 9.824 78.5358 9.504C78.1998 9.168 78.0318 8.76 78.0318 8.28C78.0318 7.784 78.1998 7.384 78.5358 7.08C78.8878 6.76 79.3278 6.6 79.8558 6.6C80.3838 6.6 80.8158 6.76 81.1518 7.08C81.5038 7.384 81.6798 7.784 81.6798 8.28C81.6798 8.76 81.5038 9.168 81.1518 9.504C80.8158 9.824 80.3838 9.984 79.8558 9.984ZM85.2239 24V10.584C85.2239 9.656 85.3759 8.912 85.6799 8.352C85.9999 7.776 86.4559 7.36 87.0479 7.104C87.6399 6.848 88.3439 6.72 89.1599 6.72H90.5999V9.168H89.5919C89.0639 9.168 88.6799 9.28 88.4399 9.504C88.2159 9.712 88.1039 10.08 88.1039 10.608V24H85.2239ZM83.4959 14.328V11.904H90.8399V14.328H83.4959ZM98.5752 24C97.7592 24 97.0472 23.872 96.4392 23.616C95.8472 23.36 95.3832 22.936 95.0472 22.344C94.7112 21.752 94.5432 20.952 94.5432 19.944V14.328H92.4792V11.904H94.5432L94.8792 8.712H97.4232V11.904H100.711V14.328H97.4232V19.944C97.4232 20.552 97.5512 20.976 97.8072 21.216C98.0792 21.44 98.5272 21.552 99.1512 21.552H100.639V24H98.5752ZM110.981 24.288C109.317 24.288 107.877 23.928 106.661 23.208C105.461 22.472 104.533 21.456 103.877 20.16C103.237 18.848 102.917 17.336 102.917 15.624C102.917 13.896 103.237 12.384 103.877 11.088C104.533 9.776 105.461 8.752 106.661 8.016C107.877 7.28 109.317 6.912 110.981 6.912C112.981 6.912 114.613 7.408 115.877 8.4C117.141 9.376 117.941 10.76 118.277 12.552H115.109C114.885 11.608 114.429 10.864 113.741 10.32C113.053 9.776 112.125 9.504 110.957 9.504C109.901 9.504 108.989 9.752 108.221 10.248C107.469 10.728 106.885 11.432 106.469 12.36C106.069 13.272 105.869 14.36 105.869 15.624C105.869 16.888 106.069 17.976 106.469 18.888C106.885 19.784 107.469 20.48 108.221 20.976C108.989 21.456 109.901 21.696 110.957 21.696C112.125 21.696 113.053 21.448 113.741 20.952C114.429 20.44 114.885 19.736 115.109 18.84H118.277C117.957 20.536 117.157 21.872 115.877 22.848C114.613 23.808 112.981 24.288 110.981 24.288ZM120.999 24V6.72H123.879V13.776C124.279 13.12 124.823 12.6 125.511 12.216C126.199 11.816 126.975 11.616 127.839 11.616C128.831 11.616 129.671 11.824 130.359 12.24C131.047 12.64 131.567 13.24 131.919 14.04C132.287 14.824 132.471 15.808 132.471 16.992V24H129.615V17.256C129.615 16.216 129.391 15.424 128.943 14.88C128.511 14.336 127.847 14.064 126.951 14.064C126.375 14.064 125.855 14.208 125.391 14.496C124.927 14.768 124.559 15.168 124.287 15.696C124.015 16.208 123.879 16.84 123.879 17.592V24H120.999ZM139.562 24.288C138.57 24.288 137.746 24.12 137.09 23.784C136.434 23.448 135.946 23 135.626 22.44C135.306 21.88 135.146 21.272 135.146 20.616C135.146 19.848 135.338 19.184 135.722 18.624C136.122 18.064 136.706 17.632 137.474 17.328C138.242 17.008 139.186 16.848 140.306 16.848H143.354C143.354 16.208 143.266 15.68 143.09 15.264C142.914 14.832 142.642 14.512 142.274 14.304C141.906 14.096 141.434 13.992 140.858 13.992C140.202 13.992 139.642 14.144 139.178 14.448C138.714 14.736 138.426 15.184 138.314 15.792H135.482C135.578 14.928 135.866 14.192 136.346 13.584C136.826 12.96 137.458 12.48 138.242 12.144C139.042 11.792 139.914 11.616 140.858 11.616C141.994 11.616 142.962 11.816 143.762 12.216C144.562 12.6 145.17 13.16 145.586 13.896C146.018 14.616 146.234 15.488 146.234 16.512V24H143.786L143.498 22.056C143.338 22.376 143.13 22.672 142.874 22.944C142.634 23.216 142.354 23.456 142.034 23.664C141.714 23.856 141.346 24.008 140.93 24.12C140.53 24.232 140.074 24.288 139.562 24.288ZM140.21 22.008C140.674 22.008 141.082 21.928 141.434 21.768C141.802 21.592 142.114 21.352 142.37 21.048C142.642 20.728 142.85 20.376 142.994 19.992C143.138 19.608 143.234 19.2 143.282 18.768V18.72H140.618C140.058 18.72 139.594 18.792 139.226 18.936C138.858 19.064 138.594 19.256 138.434 19.512C138.274 19.768 138.194 20.064 138.194 20.4C138.194 20.736 138.274 21.024 138.434 21.264C138.594 21.504 138.826 21.688 139.13 21.816C139.434 21.944 139.794 22.008 140.21 22.008ZM149.431 24V11.904H152.311V24H149.431ZM150.871 9.984C150.343 9.984 149.903 9.824 149.551 9.504C149.215 9.168 149.047 8.76 149.047 8.28C149.047 7.784 149.215 7.384 149.551 7.08C149.903 6.76 150.343 6.6 150.871 6.6C151.399 6.6 151.831 6.76 152.167 7.08C152.519 7.384 152.695 7.784 152.695 8.28C152.695 8.76 152.519 9.168 152.167 9.504C151.831 9.824 151.399 9.984 150.871 9.984ZM155.64 24V11.904H158.184L158.4 13.92C158.768 13.216 159.296 12.656 159.984 12.24C160.672 11.824 161.488 11.616 162.432 11.616C163.408 11.616 164.24 11.824 164.928 12.24C165.616 12.64 166.144 13.232 166.512 14.016C166.896 14.8 167.088 15.776 167.088 16.944V24H164.208V17.208C164.208 16.2 163.984 15.424 163.536 14.88C163.088 14.336 162.424 14.064 161.544 14.064C160.968 14.064 160.448 14.2 159.984 14.472C159.536 14.744 159.176 15.144 158.904 15.672C158.648 16.184 158.52 16.808 158.52 17.544V24H155.64ZM174.948 24.288C173.876 24.288 172.94 24.12 172.14 23.784C171.356 23.432 170.732 22.952 170.268 22.344C169.82 21.72 169.556 21.008 169.476 20.208H172.356C172.436 20.544 172.58 20.856 172.788 21.144C172.996 21.416 173.276 21.632 173.628 21.792C173.996 21.952 174.428 22.032 174.924 22.032C175.404 22.032 175.796 21.968 176.1 21.84C176.404 21.696 176.628 21.512 176.772 21.288C176.916 21.064 176.988 20.824 176.988 20.568C176.988 20.184 176.884 19.888 176.676 19.68C176.468 19.472 176.164 19.312 175.764 19.2C175.38 19.072 174.916 18.952 174.372 18.84C173.796 18.728 173.236 18.592 172.692 18.432C172.164 18.256 171.684 18.04 171.252 17.784C170.836 17.528 170.5 17.2 170.244 16.8C170.004 16.4 169.884 15.912 169.884 15.336C169.884 14.632 170.068 14 170.436 13.44C170.82 12.88 171.364 12.44 172.068 12.12C172.788 11.784 173.644 11.616 174.636 11.616C176.044 11.616 177.164 11.944 177.996 12.6C178.844 13.24 179.34 14.144 179.484 15.312H176.748C176.668 14.864 176.444 14.52 176.076 14.28C175.708 14.024 175.22 13.896 174.612 13.896C173.988 13.896 173.508 14.016 173.172 14.256C172.852 14.48 172.692 14.784 172.692 15.168C172.692 15.408 172.788 15.632 172.98 15.84C173.188 16.032 173.484 16.2 173.868 16.344C174.252 16.472 174.724 16.6 175.284 16.728C176.18 16.904 176.972 17.112 177.66 17.352C178.348 17.592 178.892 17.944 179.292 18.408C179.692 18.872 179.892 19.528 179.892 20.376C179.908 21.144 179.708 21.824 179.292 22.416C178.892 23.008 178.324 23.472 177.588 23.808C176.852 24.128 175.972 24.288 174.948 24.288Z" fill="#6138FE"/>
</svg>
