<svg width="102" height="151" viewBox="0 0 102 151" fill="none" xmlns="http://www.w3.org/2000/svg">
<path opacity="0.0344828" d="M28.3148 52.8275C29.3352 51.6114 30.8841 50.8435 32.9564 50.5326C35.0323 50.2213 37.6063 50.3737 40.6255 50.9772C46.6636 52.184 54.3927 55.1759 63.2941 59.7043C81.0906 68.7578 103.486 83.9084 126.255 103.013C149.023 122.118 167.833 141.543 179.839 157.497C185.844 165.477 190.133 172.569 192.37 178.306C193.488 181.174 194.086 183.683 194.139 185.781C194.193 187.876 193.706 189.535 192.685 190.751C191.665 191.967 190.116 192.735 188.044 193.046C185.968 193.357 183.394 193.205 180.375 192.601C174.337 191.394 166.607 188.402 157.706 183.874C139.91 174.82 117.514 159.67 94.7453 140.565C71.9769 121.46 53.1675 102.035 41.1612 86.0813C35.1559 78.1015 30.8673 71.0093 28.6303 65.2725C27.5118 62.404 26.9146 59.8955 26.8608 57.7971C26.807 55.7023 27.2943 54.0436 28.3148 52.8275Z" stroke="#4528B4" stroke-opacity="0.6" stroke-width="0.860003"/>
<path opacity="0.0689655" d="M34.6376 45.0673C35.7601 43.9448 37.3701 43.3147 39.4616 43.1857C41.5567 43.0565 44.1077 43.4327 47.0628 44.297C52.9727 46.0255 60.4117 49.6796 68.8846 54.9666C85.8242 65.5367 106.814 82.5815 127.831 103.598C148.848 124.615 165.893 145.605 176.463 162.545C181.75 171.018 185.404 178.457 187.132 184.366C187.997 187.322 188.373 189.873 188.244 191.968C188.115 194.059 187.485 195.669 186.362 196.792C185.239 197.914 183.63 198.544 181.538 198.673C179.443 198.802 176.892 198.426 173.937 197.562C168.027 195.833 160.588 192.179 152.115 186.892C135.175 176.322 114.185 159.277 93.1686 138.261C72.1519 117.244 55.1071 96.2539 44.5369 79.3142C39.25 70.8414 35.5958 63.4024 33.8673 57.4925C33.003 54.5374 32.6268 51.9864 32.756 49.8913C32.8851 47.7997 33.5151 46.1898 34.6376 45.0673Z" stroke="#4528B4" stroke-opacity="0.6" stroke-width="0.860003"/>
<path opacity="0.103448" d="M41.5383 37.8841C42.7543 36.8637 44.413 36.3764 46.5079 36.4301C48.6063 36.4839 51.1147 37.0811 53.9833 38.1997C59.72 40.4367 66.8123 44.7252 74.7921 50.7305C90.7461 62.7368 110.171 81.5462 129.276 104.315C148.381 127.083 163.531 149.479 172.585 167.275C177.113 176.177 180.105 183.906 181.312 189.944C181.915 192.963 182.068 195.537 181.756 197.613C181.446 199.685 180.678 201.234 179.462 202.255C178.246 203.275 176.587 203.762 174.492 203.709C172.394 203.655 169.885 203.058 167.017 201.939C161.28 199.702 154.188 195.414 146.208 189.408C130.254 177.402 110.829 158.593 91.7241 135.824C72.6191 113.056 57.4686 90.6599 48.4151 72.8635C43.8867 63.9621 40.8948 56.2329 39.688 50.1949C39.0845 47.1756 38.932 44.6016 39.2434 42.5257C39.5542 40.4534 40.3222 38.9045 41.5383 37.8841Z" stroke="#4528B4" stroke-opacity="0.6" stroke-width="0.860003"/>
<path opacity="0.137931" d="M48.9637 31.3263C50.2641 30.4158 51.9589 30.0749 54.0411 30.311C56.1268 30.5476 58.5737 31.361 61.3339 32.7254C66.8538 35.4539 73.5453 40.3442 80.9713 47.0222C95.8182 60.3733 113.53 80.804 130.577 105.151C147.625 129.498 160.766 153.129 168.234 171.647C171.97 180.909 174.277 188.869 174.953 194.99C175.291 198.05 175.218 200.628 174.727 202.668C174.237 204.706 173.337 206.182 172.036 207.092C170.736 208.003 169.041 208.344 166.959 208.108C164.873 207.871 162.426 207.058 159.666 205.693C154.146 202.965 147.455 198.074 140.029 191.397C125.182 178.045 107.47 157.615 90.4225 133.268C73.3746 108.921 60.2337 85.2898 52.7656 66.772C49.0303 57.5098 46.7235 49.5493 46.0475 43.429C45.7095 40.3687 45.7819 37.7912 46.273 35.7503C46.7633 33.7129 47.6633 32.2369 48.9637 31.3263Z" stroke="#4528B4" stroke-opacity="0.6" stroke-width="0.860003"/>
<path opacity="0.172414" d="M56.8574 25.4376C58.2322 24.6439 59.9504 24.452 62.004 24.8687C64.0612 25.2861 66.4279 26.3098 69.0586 27.9095C74.3197 31.1087 80.5595 36.5636 87.3753 43.8634C101.002 58.4577 116.865 80.3543 131.726 106.094C146.588 131.834 157.619 156.521 163.445 175.619C166.358 185.172 167.963 193.303 168.103 199.459C168.173 202.537 167.876 205.098 167.209 207.089C166.543 209.076 165.518 210.468 164.143 211.261C162.768 212.055 161.05 212.247 158.996 211.83C156.939 211.413 154.572 210.389 151.942 208.789C146.68 205.59 140.441 200.135 133.625 192.836C119.998 178.241 104.135 156.345 89.2738 130.604C74.4127 104.864 63.3813 80.178 57.5557 61.0797C54.6418 51.5272 53.0376 43.3959 52.8975 37.2401C52.8275 34.1619 53.1243 31.6005 53.7914 29.6102C54.4574 27.6234 55.4826 26.2314 56.8574 25.4376Z" stroke="#4528B4" stroke-opacity="0.6" stroke-width="0.860003"/>
<path opacity="0.206897" d="M65.1591 20.2559C66.5979 19.585 68.3262 19.5436 70.3357 20.1377C72.3487 20.7328 74.6171 21.9588 77.0985 23.7817C82.0607 27.4273 87.8013 33.4053 93.955 41.2713C106.258 56.9977 120.152 80.1937 132.714 107.131C145.275 134.068 154.112 159.622 158.251 179.156C160.322 188.926 161.211 197.166 160.814 203.311C160.616 206.383 160.097 208.909 159.259 210.833C158.422 212.755 157.279 214.052 155.841 214.723C154.402 215.394 152.674 215.435 150.664 214.841C148.651 214.246 146.383 213.02 143.901 211.197C138.939 207.552 133.198 201.574 127.045 193.708C114.742 177.981 100.847 154.785 88.2862 127.848C75.7251 100.91 66.8872 75.3565 62.7483 55.8232C60.6781 46.0531 59.7886 37.8129 60.1856 31.6683C60.3842 28.5958 60.9031 26.07 61.7411 24.1454C62.5777 22.2241 63.7204 20.9268 65.1591 20.2559Z" stroke="#4528B4" stroke-opacity="0.6" stroke-width="0.860003"/>
<path opacity="0.241379" d="M73.8062 15.8139C75.298 15.2709 77.0233 15.3803 78.9734 16.1473C80.9269 16.9156 83.0798 18.3347 85.3928 20.3669C90.0185 24.4311 95.2162 30.8867 100.661 39.2591C111.546 55.9979 123.366 80.3166 133.532 108.246C143.697 136.176 150.275 162.403 152.695 182.222C153.906 192.136 154.074 200.422 153.143 206.509C152.677 209.552 151.94 212.023 150.938 213.868C149.937 215.709 148.685 216.901 147.194 217.444C145.702 217.987 143.977 217.878 142.027 217.111C140.073 216.343 137.92 214.924 135.607 212.891C130.981 208.827 125.784 202.372 120.339 193.999C109.454 177.26 97.6336 152.942 87.468 125.012C77.3025 97.0824 70.7254 70.8555 68.3047 51.0358C67.0938 41.1224 66.9259 32.8361 67.857 26.7494C68.3226 23.7059 69.0597 21.2349 70.0622 19.3907C71.0631 17.5497 72.3145 16.3568 73.8062 15.8139Z" stroke="#4528B4" stroke-opacity="0.6" stroke-width="0.860003"/>
<path opacity="0.275862" d="M82.7323 12.14C84.2657 11.7291 85.975 11.9885 87.8508 12.9225C89.7299 13.8581 91.7509 15.4594 93.878 17.6855C98.1318 22.1374 102.747 29.0214 107.441 37.8365C116.827 55.4604 126.482 80.7167 134.175 109.426C141.867 138.135 146.134 164.836 146.818 184.791C147.16 194.772 146.605 203.042 145.147 209.024C144.418 212.015 143.468 214.413 142.309 216.162C141.151 217.909 139.801 218.988 138.267 219.399C136.734 219.81 135.025 219.551 133.149 218.617C131.27 217.681 129.249 216.08 127.122 213.854C122.868 209.402 118.252 202.518 113.558 193.703C104.173 176.079 94.5175 150.823 86.8249 122.113C79.1323 93.404 74.8661 66.7036 74.1819 46.7484C73.8397 36.7672 74.3946 28.4977 75.8526 22.5154C76.5817 19.524 77.5313 17.1267 78.6908 15.3769C79.8484 13.6301 81.1989 12.5509 82.7323 12.14Z" stroke="#4528B4" stroke-opacity="0.6" stroke-width="0.860003"/>
<path opacity="0.310345" d="M91.87 9.25426C93.4334 8.9786 95.1135 9.38592 96.9008 10.4799C98.6912 11.5757 100.565 13.3471 102.49 15.7501C106.34 20.5557 110.337 27.8159 114.245 37.0065C122.059 55.3813 129.476 81.383 134.638 110.654C139.799 139.924 141.722 166.895 140.664 186.834C140.135 196.807 138.861 204.996 136.888 210.829C135.901 213.745 134.746 216.051 133.438 217.693C132.133 219.332 130.693 220.289 129.13 220.565C127.566 220.841 125.886 220.433 124.099 219.339C122.309 218.244 120.435 216.472 118.51 214.069C114.66 209.264 110.662 202.004 106.754 192.813C98.941 174.438 91.5234 148.436 86.3622 119.166C81.201 89.8953 79.2782 62.9247 80.3358 42.9857C80.8648 33.0127 82.1384 24.8231 84.1122 18.9906C85.0992 16.0741 86.2542 13.7687 87.5618 12.1266C88.8672 10.4873 90.3067 9.52992 91.87 9.25426Z" stroke="#4528B4" stroke-opacity="0.6" stroke-width="0.860003"/>
<path opacity="0.344828" d="M101.15 7.17263C102.731 7.03428 104.369 7.58648 106.054 8.83205C107.742 10.0798 109.455 12.0077 111.163 14.5693C114.579 19.6922 117.929 27.2731 121.021 36.7694C127.203 55.7552 132.326 82.3045 134.917 111.914C137.507 141.523 137.072 168.558 134.281 188.329C132.885 198.218 130.902 206.265 128.428 211.904C127.19 214.723 125.839 216.919 124.393 218.441C122.95 219.96 121.432 220.788 119.851 220.927C118.269 221.065 116.631 220.513 114.946 219.267C113.258 218.02 111.545 216.092 109.837 213.53C106.421 208.407 103.071 200.826 99.9791 191.33C93.7969 172.344 88.6738 145.795 86.0833 116.186C83.4929 86.5769 83.928 59.5414 86.7194 39.7704C88.1156 29.8815 90.0981 21.834 92.5728 16.1958C93.8102 13.3764 95.1617 11.1804 96.6074 9.65855C98.0507 8.13929 99.5682 7.31099 101.15 7.17263Z" stroke="#4528B4" stroke-opacity="0.6" stroke-width="0.860003"/>
<path opacity="0.37931" d="M110.5 5.90407C112.088 5.90407 113.671 6.59695 115.242 7.98465C116.815 9.37474 118.352 11.4446 119.831 14.1453C122.787 19.5465 125.464 27.3905 127.717 37.1201C132.22 56.5725 135.01 83.4673 135.01 113.189C135.01 142.911 132.22 169.806 127.717 189.259C125.464 198.988 122.787 206.832 119.831 212.233C118.352 214.934 116.815 217.004 115.242 218.394C113.671 219.782 112.088 220.475 110.5 220.475C108.913 220.475 107.329 219.782 105.759 218.394C104.186 217.004 102.648 214.934 101.17 212.233C98.2129 206.832 95.5365 198.988 93.2838 189.259C88.7798 169.806 85.9901 142.911 85.9901 113.189C85.9901 83.4673 88.7798 56.5725 93.2838 37.1201C95.5365 27.3905 98.2129 19.5465 101.17 14.1453C102.648 11.4446 104.186 9.37474 105.759 7.98465C107.329 6.59695 108.913 5.90407 110.5 5.90407Z" stroke="#4528B4" stroke-opacity="0.6" stroke-width="0.860003"/>
<path opacity="0.413793" d="M119.851 5.45209C121.432 5.59045 122.949 6.41874 124.393 7.93801C125.838 9.45989 127.19 11.6559 128.427 14.4752C130.902 20.1135 132.885 28.1609 134.281 38.0499C137.072 57.8208 137.507 84.8564 134.917 114.465C132.326 144.074 127.203 170.624 121.021 189.609C117.929 199.106 114.579 206.687 111.163 211.81C109.455 214.371 107.742 216.299 106.054 217.547C104.369 218.792 102.731 219.345 101.149 219.206C99.5681 219.068 98.0506 218.24 96.6073 216.72C95.1616 215.198 93.8101 213.002 92.5727 210.183C90.098 204.545 88.1155 196.497 86.7193 186.608C83.9279 166.838 83.4928 139.802 86.0832 110.193C88.6737 80.584 93.7968 54.0347 99.979 35.0489C103.071 25.5526 106.421 17.9717 109.837 12.8488C111.545 10.2872 113.258 8.35922 114.946 7.1115C116.631 5.86594 118.269 5.31373 119.851 5.45209Z" stroke="#4528B4" stroke-opacity="0.6" stroke-width="0.860003"/>
<path opacity="0.448276" d="M129.13 5.81367C130.693 6.08933 132.133 7.04673 133.438 8.686C134.746 10.3281 135.901 12.6335 136.888 15.55C138.862 21.3825 140.135 29.5721 140.664 39.5451C141.722 59.4841 139.799 86.4547 134.638 115.725C129.477 144.996 122.059 170.997 114.246 189.372C110.338 198.563 106.34 205.823 102.49 210.629C100.565 213.032 98.6914 214.803 96.901 215.899C95.1137 216.993 93.4336 217.4 91.8702 217.125C90.3069 216.849 88.8674 215.891 87.562 214.252C86.2544 212.61 85.0994 210.305 84.1124 207.388C82.1386 201.556 80.865 193.366 80.336 183.393C79.2784 163.454 81.2012 136.484 86.3624 107.213C91.5236 77.9424 98.9412 51.9407 106.755 33.5659C110.663 24.3753 114.66 17.1152 118.51 12.3095C120.435 9.90649 122.309 8.13513 124.099 7.03929C125.887 5.94533 127.567 5.53801 129.13 5.81367Z" stroke="#4528B4" stroke-opacity="0.6" stroke-width="0.860003"/>
<path opacity="0.482759" d="M138.268 6.97981C139.801 7.39068 141.152 8.4699 142.309 10.2167C143.469 11.9665 144.418 14.3638 145.147 17.3552C146.605 23.3376 147.16 31.607 146.818 41.5882C146.134 61.5434 141.868 88.2438 134.175 116.953C126.482 145.662 116.827 170.919 107.442 188.543C102.747 197.358 98.1321 204.242 93.8782 208.694C91.7512 210.92 89.7301 212.521 87.851 213.457C85.9752 214.391 84.2659 214.65 82.7326 214.239C81.1992 213.828 79.8486 212.749 78.6911 211.002C77.5316 209.252 76.5819 206.855 75.8529 203.864C74.3949 197.881 73.8399 189.612 74.1821 179.631C74.8663 159.676 79.1325 132.975 86.8251 104.266C94.5178 75.5565 104.173 50.3002 113.558 32.6763C118.253 23.8612 122.868 16.9772 127.122 12.5253C129.249 10.2992 131.27 8.69793 133.149 7.7623C135.025 6.82828 136.734 6.56894 138.268 6.97981Z" stroke="#4528B4" stroke-opacity="0.6" stroke-width="0.860003"/>
<path opacity="0.517241" d="M147.194 8.93409C148.685 9.47704 149.937 10.6699 150.938 12.5109C151.94 14.3551 152.677 16.8261 153.143 19.8696C154.074 25.9563 153.906 34.2426 152.695 44.156C150.275 63.9757 143.697 90.2026 133.532 118.132C123.366 146.062 111.546 170.381 100.661 187.119C95.2162 195.492 90.0185 201.947 85.3928 206.012C83.0798 208.044 80.9269 209.463 78.9734 210.231C77.0233 210.998 75.298 211.108 73.8062 210.565C72.3145 210.022 71.0631 208.829 70.0622 206.988C69.0597 205.144 68.3226 202.673 67.857 199.629C66.9259 193.542 67.0938 185.256 68.3046 175.343C70.7254 155.523 77.3025 129.296 87.468 101.366C97.6336 73.4368 109.454 49.1181 120.339 32.3793C125.784 24.0069 130.981 17.5513 135.607 13.4871C137.92 11.4549 140.073 10.0358 142.027 9.2675C143.977 8.50052 145.702 8.39114 147.194 8.93409Z" stroke="#4528B4" stroke-opacity="0.6" stroke-width="0.860003"/>
<path opacity="0.551724" d="M155.841 11.656C157.279 12.3269 158.422 13.6242 159.259 15.5455C160.097 17.4701 160.616 19.9959 160.814 23.0684C161.211 29.213 160.322 37.4532 158.251 47.2233C154.112 66.7566 145.275 92.3106 132.714 119.248C120.152 146.185 106.258 169.381 93.955 185.108C87.8013 192.974 82.0607 198.952 77.0985 202.597C74.6171 204.42 72.3487 205.646 70.3357 206.241C68.3262 206.835 66.5979 206.794 65.1591 206.123C63.7204 205.452 62.5777 204.155 61.7411 202.234C60.9031 200.309 60.3842 197.783 60.1856 194.711C59.7886 188.566 60.6781 180.326 62.7483 170.556C66.8873 151.022 75.7251 125.468 88.2862 98.5311C100.847 71.5937 114.742 48.3978 127.045 32.6714C133.198 24.8054 138.939 18.8274 143.901 15.1818C146.383 13.3589 148.651 12.1329 150.664 11.5378C152.674 10.9437 154.402 10.9851 155.841 11.656Z" stroke="#4528B4" stroke-opacity="0.6" stroke-width="0.860003"/>
<path opacity="0.586207" d="M164.143 15.1176C165.518 15.9113 166.543 17.3033 167.209 19.2902C167.876 21.2805 168.173 23.8419 168.103 26.9201C167.963 33.0759 166.358 41.2072 163.445 50.7597C157.619 69.858 146.588 94.5444 131.726 120.284C116.865 146.025 101.002 167.921 87.3753 182.516C80.5595 189.815 74.3198 195.27 69.0586 198.469C66.4279 200.069 64.0612 201.093 62.004 201.51C59.9504 201.927 58.2322 201.735 56.8574 200.941C55.4826 200.148 54.4574 198.756 53.7914 196.769C53.1243 194.778 52.8275 192.217 52.8975 189.139C53.0376 182.983 54.6418 174.852 57.5557 165.299C63.3813 146.201 74.4127 121.514 89.2738 95.7744C104.135 70.0343 119.998 48.1376 133.625 33.5433C140.441 26.2436 146.68 20.7886 151.942 17.5895C154.572 15.9897 156.939 14.9661 158.996 14.5487C161.05 14.132 162.768 14.3239 164.143 15.1176Z" stroke="#4528B4" stroke-opacity="0.6" stroke-width="0.860003"/>
<path opacity="0.62069" d="M172.036 19.2866C173.337 20.1971 174.237 21.6732 174.727 23.7106C175.218 25.7514 175.291 28.329 174.953 31.3893C174.277 37.5095 171.97 45.47 168.234 54.7322C160.766 73.2501 147.625 96.8811 130.578 121.228C113.53 145.575 95.8182 166.006 80.9714 179.357C73.5453 186.035 66.8538 190.925 61.3339 193.654C58.5737 195.018 56.1269 195.831 54.0411 196.068C51.959 196.304 50.2641 195.963 48.9637 195.053C47.6633 194.142 46.7633 192.666 46.273 190.629C45.7819 188.588 45.7095 186.01 46.0475 182.95C46.7235 176.83 49.0304 168.869 52.7657 159.607C60.2337 141.089 73.3747 117.458 90.4226 93.1112C107.47 68.7643 125.182 48.3335 140.029 34.9824C147.455 28.3045 154.146 23.4141 159.666 20.6856C162.426 19.3213 164.873 18.5078 166.959 18.2713C169.041 18.0352 170.736 18.3761 172.036 19.2866Z" stroke="#4528B4" stroke-opacity="0.6" stroke-width="0.860003"/>
<path opacity="0.655172" d="M179.462 24.124C180.678 25.1444 181.446 26.6933 181.757 28.7656C182.068 30.8415 181.915 33.4156 181.312 36.4348C180.105 42.4728 177.113 50.202 172.585 59.1034C163.531 76.8999 148.381 99.2957 129.276 122.064C110.171 144.833 90.7462 163.642 74.7922 175.648C66.8124 181.654 59.7201 185.942 53.9834 188.179C51.1148 189.298 48.6064 189.895 46.508 189.949C44.4131 190.002 42.7544 189.515 41.5383 188.495C40.3223 187.474 39.5543 185.925 39.2435 183.853C38.9321 181.777 39.0846 179.203 39.6881 176.184C40.8949 170.146 43.8868 162.417 48.4151 153.515C57.4687 135.719 72.6192 113.323 91.7242 90.5545C110.829 67.7861 130.254 48.9767 146.208 36.9704C154.188 30.9651 161.28 26.6766 167.017 24.4396C169.885 23.321 172.394 22.7239 174.492 22.67C176.587 22.6163 178.246 23.1036 179.462 24.124Z" stroke="#4528B4" stroke-opacity="0.6" stroke-width="0.860003"/>
<path opacity="0.689655" d="M186.362 29.5872C187.485 30.7097 188.115 32.3197 188.244 34.4112C188.373 36.5063 187.997 39.0573 187.133 42.0124C185.404 47.9223 181.75 55.3613 176.463 63.8342C165.893 80.7738 148.848 101.764 127.831 122.781C106.815 143.797 85.8245 160.842 68.8848 171.412C60.4119 176.699 52.9729 180.353 47.0631 182.082C44.1079 182.946 41.557 183.322 39.4618 183.193C37.3703 183.064 35.7604 182.434 34.6378 181.312C33.5153 180.189 32.8853 178.579 32.7563 176.488C32.627 174.392 33.0032 171.842 33.8676 168.886C35.5961 162.977 39.2502 155.538 44.5371 147.065C55.1073 130.125 72.1521 109.135 93.1688 88.1182C114.185 67.1015 135.176 50.0567 152.115 39.4865C160.588 34.1996 168.027 30.5454 173.937 28.8169C176.892 27.9526 179.443 27.5764 181.538 27.7056C183.63 27.8347 185.24 28.4647 186.362 29.5872Z" stroke="#4528B4" stroke-opacity="0.6" stroke-width="0.860003"/>
<path opacity="0.724138" d="M192.685 35.6278C193.706 36.8438 194.193 38.5025 194.139 40.5974C194.085 42.6958 193.488 45.2043 192.37 48.0728C190.133 53.8095 185.844 60.9018 179.839 68.8816C167.833 84.8356 149.023 104.26 126.255 123.365C103.486 142.47 81.0905 157.621 63.2941 166.674C54.3927 171.203 46.6635 174.195 40.6255 175.401C37.6062 176.005 35.0322 176.157 32.9563 175.846C30.884 175.535 29.3351 174.767 28.3147 173.551C27.2943 172.335 26.8069 170.676 26.8607 168.582C26.9145 166.483 27.5117 163.975 28.6303 161.106C30.8673 155.369 35.1558 148.277 41.1611 140.297C53.1674 124.343 71.9768 104.919 94.7452 85.8136C117.514 66.7086 139.909 51.5581 157.706 42.5046C166.607 37.9762 174.337 34.9843 180.375 33.7775C183.394 33.174 185.968 33.0215 188.044 33.3329C190.116 33.6437 191.665 34.4117 192.685 35.6278Z" stroke="#4528B4" stroke-opacity="0.6" stroke-width="0.860003"/>
<path opacity="0.758621" d="M198.383 42.193C199.294 43.4934 199.634 45.1882 199.398 47.2704C199.162 49.3561 198.348 51.803 196.984 54.5632C194.255 60.0831 189.365 66.7745 182.687 74.2006C169.336 89.0475 148.905 106.759 124.558 123.807C100.211 140.855 76.5805 153.996 58.0626 161.464C48.8004 165.199 40.8399 167.506 34.7197 168.182C31.6593 168.52 29.0818 168.447 27.041 167.956C25.0036 167.466 23.5275 166.566 22.617 165.266C21.7065 163.965 21.3656 162.27 21.6017 160.188C21.8382 158.102 22.6517 155.656 24.016 152.895C26.7445 147.376 31.6349 140.684 38.3128 133.258C51.6639 118.411 72.0947 100.7 96.4416 83.6518C120.789 66.6039 144.42 53.463 162.937 45.9949C172.2 42.2596 180.16 39.9528 186.28 39.2768C189.341 38.9387 191.918 39.0112 193.959 39.5023C195.996 39.9926 197.472 40.8926 198.383 42.193Z" stroke="#4528B4" stroke-opacity="0.6" stroke-width="0.860003"/>
<path opacity="0.793103" d="M203.412 49.2267C204.206 50.6015 204.398 52.3196 203.981 54.3733C203.563 56.4305 202.54 58.7971 200.94 61.4279C197.741 66.689 192.286 72.9288 184.986 79.7446C170.392 93.3713 148.495 109.235 122.755 124.096C97.0151 138.957 72.3286 149.988 53.2304 155.814C43.6779 158.728 35.5466 160.332 29.3907 160.472C26.3126 160.542 23.7512 160.245 21.7609 159.578C19.774 158.912 18.382 157.887 17.5883 156.512C16.7945 155.137 16.6027 153.419 17.0194 151.365C17.4368 149.308 18.4604 146.942 20.0601 144.311C23.2593 139.05 28.7143 132.81 36.014 125.994C50.6083 112.367 72.505 96.5041 98.2451 81.643C123.985 66.782 148.672 55.7506 167.77 49.9249C177.322 47.011 185.454 45.4068 191.609 45.2668C194.688 45.1968 197.249 45.4936 199.239 46.1607C201.226 46.8267 202.618 47.8519 203.412 49.2267Z" stroke="#4528B4" stroke-opacity="0.6" stroke-width="0.860003"/>
<path opacity="0.827586" d="M207.734 56.6685C208.404 58.1073 208.446 59.8356 207.852 61.8451C207.257 63.8581 206.031 66.1265 204.208 68.6079C200.562 73.5701 194.584 79.3107 186.718 85.4644C170.992 97.7673 147.796 111.662 120.858 124.223C93.9211 136.784 68.3672 145.622 48.8339 149.761C39.0637 151.831 30.8236 152.721 24.6789 152.324C21.6064 152.125 19.0806 151.606 17.156 150.768C15.2348 149.931 13.9374 148.789 13.2665 147.35C12.5956 145.911 12.5542 144.183 13.1483 142.173C13.7434 140.16 14.9694 137.892 16.7924 135.411C20.4379 130.448 26.416 124.708 34.2819 118.554C50.0084 106.251 73.2043 92.3567 100.142 79.7956C127.079 67.2345 152.633 58.3966 172.166 54.2577C181.936 52.1875 190.177 51.298 196.321 51.695C199.394 51.8936 201.919 52.4125 203.844 53.2505C205.765 54.0871 207.063 55.2298 207.734 56.6685Z" stroke="#4528B4" stroke-opacity="0.6" stroke-width="0.860003"/>
<path opacity="0.862069" d="M211.315 64.4556C211.858 65.9473 211.749 67.6727 210.982 69.6228C210.214 71.5762 208.794 73.7292 206.762 76.0422C202.698 80.6678 196.242 85.8656 187.87 91.3102C171.131 102.196 146.813 114.016 118.883 124.181C90.9534 134.347 64.7264 140.924 44.9067 143.345C34.9933 144.555 26.707 144.723 20.6203 143.792C17.5768 143.327 15.1058 142.59 13.2616 141.587C11.4206 140.586 10.2278 139.335 9.68481 137.843C9.14186 136.351 9.25125 134.626 10.0182 132.676C10.7865 130.722 12.2056 128.569 14.2378 126.256C18.302 121.631 24.7576 116.433 33.13 110.988C49.8688 100.103 74.1875 88.2829 102.117 78.1174C130.047 67.9518 156.274 61.3748 176.093 58.954C186.007 57.7432 194.293 57.5753 200.38 58.5064C203.423 58.9719 205.894 59.709 207.738 60.7116C209.58 61.7125 210.772 62.9638 211.315 64.4556Z" stroke="#4528B4" stroke-opacity="0.6" stroke-width="0.860003"/>
<path opacity="0.896552" d="M214.13 72.5219C214.541 74.0553 214.281 75.7645 213.347 77.6404C212.412 79.5194 210.81 81.5405 208.584 83.6676C204.132 87.9214 197.248 92.5367 188.433 97.231C170.809 106.616 145.553 116.272 116.844 123.964C88.1343 131.657 61.434 135.923 41.4787 136.607C31.4975 136.95 23.2281 136.395 17.2457 134.937C14.2543 134.208 11.857 133.258 10.1072 132.098C8.36041 130.941 7.28119 129.59 6.87032 128.057C6.45945 126.523 6.71879 124.814 7.65282 122.938C8.58845 121.059 10.1897 119.038 12.4158 116.911C16.8677 112.657 23.7518 108.042 32.5668 103.348C50.1907 93.9627 75.447 84.3071 104.156 76.6145C132.866 68.9218 159.566 64.6556 179.521 63.9715C189.502 63.6293 197.772 64.1842 203.754 65.6422C206.746 66.3713 209.143 67.3209 210.893 68.4804C212.64 69.6379 213.719 70.9885 214.13 72.5219Z" stroke="#4528B4" stroke-opacity="0.6" stroke-width="0.860003"/>
<path opacity="0.931035" d="M216.155 80.7994C216.431 82.3628 216.024 84.0429 214.93 85.8302C213.834 87.6206 212.063 89.4944 209.66 91.4193C204.854 95.269 197.594 99.2668 188.403 103.175C170.028 110.988 144.027 118.406 114.756 123.567C85.4856 128.728 58.515 130.651 38.576 129.593C28.603 129.064 20.4134 127.791 14.5809 125.817C11.6645 124.83 9.35905 123.675 7.71694 122.367C6.07767 121.062 5.12026 119.623 4.8446 118.059C4.56894 116.496 4.97626 114.816 6.07022 113.028C7.16607 111.238 8.93742 109.364 11.3404 107.439C16.1461 103.59 23.4062 99.5918 32.5968 95.6838C50.9716 87.8704 76.9734 80.4528 106.244 75.2916C135.514 70.1304 162.485 68.2075 182.424 69.2652C192.397 69.7942 200.587 71.0678 206.419 73.0416C209.336 74.0286 211.641 75.1836 213.283 76.4912C214.922 77.7965 215.88 79.236 216.155 80.7994Z" stroke="#4528B4" stroke-opacity="0.6" stroke-width="0.860003"/>
<path opacity="0.965517" d="M217.377 89.219C217.515 90.8005 216.963 92.4387 215.718 94.1239C214.47 95.8119 212.542 97.5242 209.98 99.2324C204.857 102.649 197.276 105.998 187.78 109.091C168.794 115.273 142.245 120.396 112.636 122.986C83.0271 125.577 55.9915 125.142 36.2206 122.35C26.3316 120.954 18.2842 118.972 12.6459 116.497C9.82658 115.26 7.6306 113.908 6.10872 112.462C4.58944 111.019 3.76115 109.502 3.62279 107.92C3.48443 106.339 4.03664 104.7 5.28221 103.015C6.52993 101.327 8.45785 99.6149 11.0195 97.9067C16.1424 94.4905 23.7233 91.1408 33.2196 88.0486C52.2054 81.8664 78.7547 76.7432 108.364 74.1528C137.973 71.5623 165.008 71.9974 184.779 74.7888C194.668 76.185 202.716 78.1675 208.354 80.6422C211.173 81.8796 213.369 83.2311 214.891 84.6769C216.41 86.1201 217.239 87.6376 217.377 89.219Z" stroke="#4528B4" stroke-opacity="0.6" stroke-width="0.860003"/>
<path d="M217.785 97.7094C217.785 99.2969 217.092 100.881 215.705 102.451C214.315 104.024 212.245 105.562 209.544 107.04C204.143 109.997 196.299 112.673 186.569 114.926C167.117 119.43 140.222 122.219 110.5 122.219C80.7779 122.219 53.8832 119.43 34.4308 114.926C24.7011 112.673 16.8571 109.997 11.4559 107.04C8.75518 105.562 6.68535 104.024 5.29526 102.451C3.90756 100.881 3.21467 99.2969 3.21467 97.7094C3.21467 96.1219 3.90756 94.538 5.29526 92.9679C6.68535 91.395 8.75518 89.8572 11.4559 88.3788C16.8571 85.4221 24.7011 82.7458 34.4308 80.493C53.8832 75.9891 80.7779 73.1993 110.5 73.1993C140.222 73.1993 167.117 75.9891 186.569 80.493C196.299 82.7458 204.143 85.4221 209.544 88.3788C212.245 89.8572 214.315 91.395 215.705 92.9679C217.092 94.538 217.785 96.1219 217.785 97.7094Z" stroke="#4528B4" stroke-opacity="0.6" stroke-width="0.860003"/>
</svg>
