<svg width="115" height="227" viewBox="0 0 115 227" fill="none" xmlns="http://www.w3.org/2000/svg">
<path opacity="0.0344828" d="M-77.6854 52.8275C-76.665 51.6114 -75.1161 50.8435 -73.0437 50.5326C-70.9678 50.2213 -68.3938 50.3737 -65.3746 50.9772C-59.3366 52.184 -51.6074 55.1759 -42.706 59.7043C-24.9095 68.7578 -2.51371 83.9084 20.2547 103.013C43.0232 122.118 61.8325 141.543 73.8389 157.497C79.8441 165.477 84.1327 172.569 86.3697 178.306C87.4883 181.174 88.0854 183.683 88.1393 185.781C88.193 187.876 87.7057 189.535 86.6853 190.751C85.6649 191.967 84.116 192.735 82.0437 193.046C79.9678 193.357 77.3937 193.205 74.3745 192.601C68.3365 191.394 60.6073 188.402 51.7059 183.874C33.9094 174.82 11.5136 159.67 -11.2548 140.565C-34.0233 121.46 -52.8326 102.035 -64.8389 86.0813C-70.8442 78.1015 -75.1328 71.0093 -77.3698 65.2725C-78.4884 62.404 -79.0855 59.8955 -79.1393 57.7971C-79.1931 55.7023 -78.7058 54.0436 -77.6854 52.8275Z" stroke="#4528B4" stroke-opacity="0.6" stroke-width="0.860003"/>
<path opacity="0.0689655" d="M-71.3622 45.0673C-70.2397 43.9448 -68.6298 43.3147 -66.5383 43.1857C-64.4431 43.0565 -61.8922 43.4327 -58.937 44.297C-53.0272 46.0255 -45.5882 49.6796 -37.1153 54.9666C-20.1756 65.5367 0.814484 82.5815 21.8312 103.598C42.8479 124.615 59.8927 145.605 70.4628 162.545C75.7498 171.018 79.4039 178.457 81.1324 184.366C81.9967 187.322 82.3729 189.873 82.2437 191.968C82.1147 194.059 81.4846 195.669 80.3621 196.792C79.2396 197.914 77.6297 198.544 75.5382 198.673C73.443 198.802 70.8921 198.426 67.9369 197.562C62.0271 195.833 54.588 192.179 46.1152 186.892C29.1755 176.322 8.18539 159.277 -12.8313 138.261C-33.848 117.244 -50.8928 96.2539 -61.463 79.3142C-66.7499 70.8414 -70.404 63.4024 -72.1325 57.4925C-72.9968 54.5374 -73.3731 51.9864 -73.2438 49.8913C-73.1148 47.7997 -72.4848 46.1898 -71.3622 45.0673Z" stroke="#4528B4" stroke-opacity="0.6" stroke-width="0.860003"/>
<path opacity="0.103448" d="M-64.4617 37.8841C-63.2457 36.8637 -61.587 36.3763 -59.4921 36.4301C-57.3937 36.4839 -54.8853 37.0811 -52.0167 38.1996C-46.28 40.4366 -39.1877 44.7252 -31.2079 50.7305C-15.2539 62.7368 4.17075 81.5462 23.2757 104.315C42.3807 127.083 57.5313 149.479 66.5848 167.275C71.1132 176.177 74.105 183.906 75.3119 189.944C75.9154 192.963 76.0678 195.537 75.7565 197.613C75.4456 199.685 74.6777 201.234 73.4616 202.255C72.2455 203.275 70.5868 203.762 68.492 203.709C66.3936 203.655 63.8851 203.058 61.0166 201.939C55.2798 199.702 48.1876 195.414 40.2078 189.408C24.2538 177.402 4.82912 158.593 -14.2759 135.824C-33.3809 113.056 -48.5314 90.6599 -57.5849 72.8634C-62.1133 63.9621 -65.1052 56.2329 -66.312 50.1949C-66.9155 47.1756 -67.068 44.6016 -66.7566 42.5257C-66.4458 40.4534 -65.6778 38.9045 -64.4617 37.8841Z" stroke="#4528B4" stroke-opacity="0.6" stroke-width="0.860003"/>
<path opacity="0.137931" d="M-57.0363 31.3264C-55.7359 30.4158 -54.0411 30.0749 -51.9589 30.311C-49.8732 30.5476 -47.4263 31.3611 -44.6661 32.7254C-39.1462 35.4539 -32.4547 40.3442 -25.0287 47.0222C-10.1818 60.3733 7.5296 80.804 24.5775 105.151C41.6254 129.498 54.7663 153.129 62.2344 171.647C65.9697 180.909 68.2765 188.869 68.9525 194.99C69.2906 198.05 69.2181 200.628 68.727 202.668C68.2367 204.706 67.3367 206.182 66.0363 207.092C64.736 208.003 63.0411 208.344 60.9589 208.108C58.8732 207.871 56.4263 207.058 53.6661 205.693C48.1462 202.965 41.4548 198.074 34.0287 191.397C19.1818 178.045 1.47042 157.615 -15.5775 133.268C-32.6254 108.921 -45.7663 85.2898 -53.2344 66.772C-56.9697 57.5098 -59.2765 49.5493 -59.9525 43.429C-60.2905 40.3687 -60.2181 37.7912 -59.727 35.7503C-59.2367 33.713 -58.3367 32.2369 -57.0363 31.3264Z" stroke="#4528B4" stroke-opacity="0.6" stroke-width="0.860003"/>
<path opacity="0.172414" d="M-49.1426 25.4376C-47.7678 24.6439 -46.0496 24.452 -43.996 24.8687C-41.9388 25.2861 -39.5721 26.3098 -36.9414 27.9095C-31.6803 31.1087 -25.4405 36.5636 -18.6247 43.8634C-4.99796 58.4577 10.8654 80.3543 25.7265 106.094C40.5875 131.834 51.6189 156.521 57.4446 175.619C60.3584 185.172 61.9627 193.303 62.1027 199.459C62.1727 202.537 61.8759 205.098 61.2088 207.089C60.5428 209.076 59.5176 210.468 58.1428 211.261C56.768 212.055 55.0498 212.247 52.9962 211.83C50.939 211.413 48.5723 210.389 45.9416 208.789C40.6805 205.59 34.4407 200.135 27.6249 192.836C13.9982 178.241 -1.86519 156.345 -16.7262 130.604C-31.5873 104.864 -42.6187 80.178 -48.4443 61.0797C-51.3582 51.5272 -52.9624 43.3959 -53.1025 37.2401C-53.1725 34.1619 -52.8757 31.6005 -52.2086 29.6102C-51.5426 27.6234 -50.5174 26.2314 -49.1426 25.4376Z" stroke="#4528B4" stroke-opacity="0.6" stroke-width="0.860003"/>
<path opacity="0.206897" d="M-40.8408 20.2559C-39.402 19.585 -37.6737 19.5436 -35.6642 20.1377C-33.6512 20.7328 -31.3827 21.9589 -28.9014 23.7818C-23.9392 27.4273 -18.1986 33.4054 -12.0449 41.2713C0.257973 56.9978 14.1526 80.1937 26.7137 107.131C39.2748 134.068 48.1126 159.622 52.2516 179.156C54.3218 188.926 55.2113 197.166 54.8142 203.311C54.6157 206.383 54.0968 208.909 53.2587 210.833C52.4221 212.755 51.2795 214.052 49.8407 214.723C48.402 215.394 46.6737 215.435 44.6641 214.841C42.6511 214.246 40.3827 213.02 37.9014 211.197C32.9391 207.552 27.1985 201.574 21.0449 193.708C8.742 177.981 -5.15259 154.785 -17.7137 127.848C-30.2748 100.91 -39.1126 75.3566 -43.2516 55.8233C-45.3218 46.0531 -46.2113 37.813 -45.8143 31.6683C-45.6157 28.5958 -45.0968 26.07 -44.2588 24.1454C-43.4222 22.2242 -42.2795 20.9268 -40.8408 20.2559Z" stroke="#4528B4" stroke-opacity="0.6" stroke-width="0.860003"/>
<path opacity="0.241379" d="M-32.1938 15.8139C-30.702 15.2709 -28.9767 15.3803 -27.0266 16.1473C-25.0731 16.9156 -22.9202 18.3347 -20.6072 20.3669C-15.9815 24.4311 -10.7838 30.8867 -5.33913 39.2591C5.5463 55.9979 17.3664 80.3165 27.5319 108.246C37.6975 136.176 44.2745 162.403 46.6953 182.222C47.9061 192.136 48.074 200.422 47.143 206.509C46.6774 209.552 45.9403 212.023 44.9377 213.868C43.9368 215.709 42.6855 216.901 41.1937 217.444C39.702 217.987 37.9766 217.878 36.0265 217.111C34.0731 216.343 31.9201 214.924 29.6071 212.891C24.9815 208.827 19.7837 202.372 14.3391 193.999C3.45365 177.26 -8.36641 152.942 -18.532 125.012C-28.6975 97.0824 -35.2746 70.8555 -37.6953 51.0357C-38.9062 41.1224 -39.0741 32.8361 -38.143 26.7494C-37.6774 23.7059 -36.9403 21.2349 -35.9378 19.3907C-34.9369 17.5496 -33.6855 16.3568 -32.1938 15.8139Z" stroke="#4528B4" stroke-opacity="0.6" stroke-width="0.860003"/>
<path opacity="0.275862" d="M-23.2677 12.14C-21.7343 11.7291 -20.025 11.9885 -18.1492 12.9225C-16.2701 13.8581 -14.2491 15.4594 -12.122 17.6855C-7.86815 22.1374 -3.25284 29.0214 1.44139 37.8365C10.8265 55.4603 20.4821 80.7166 28.1747 109.426C35.8674 138.135 40.1336 164.836 40.8177 184.791C41.1599 194.772 40.605 203.042 39.147 209.024C38.4179 212.015 37.4683 214.413 36.3088 216.162C35.1513 217.909 33.8007 218.988 32.2673 219.399C30.7339 219.81 29.0247 219.551 27.1488 218.617C25.2698 217.681 23.2487 216.08 21.1216 213.854C16.8678 209.402 12.2525 202.518 7.55824 193.703C-1.82689 176.079 -11.4825 150.823 -19.1751 122.113C-26.8677 93.404 -31.1339 66.7036 -31.8181 46.7483C-32.1603 36.7672 -31.6054 28.4977 -30.1474 22.5154C-29.4183 19.524 -28.4687 17.1267 -27.3092 15.3769C-26.1516 13.6301 -24.8011 12.5509 -23.2677 12.14Z" stroke="#4528B4" stroke-opacity="0.6" stroke-width="0.860003"/>
<path opacity="0.310345" d="M-14.1299 9.25428C-12.5665 8.97861 -10.8864 9.38594 -9.09907 10.4799C-7.3087 11.5757 -5.43487 13.3471 -3.50991 15.7501C0.339731 20.5558 4.3375 27.8159 8.24558 37.0065C16.059 55.3813 23.4766 81.383 28.6378 110.654C33.7989 139.924 35.7218 166.895 34.6642 186.834C34.1351 196.807 32.8616 204.996 30.8877 210.829C29.9007 213.745 28.7458 216.051 27.4382 217.693C26.1328 219.332 24.6933 220.289 23.1299 220.565C21.5666 220.841 19.8864 220.433 18.0992 219.34C16.3088 218.244 14.435 216.472 12.51 214.069C8.66035 209.264 4.66259 202.004 0.754505 192.813C-7.05889 174.438 -14.4765 148.436 -19.6377 119.166C-24.7989 89.8953 -26.7217 62.9247 -25.6641 42.9857C-25.1351 33.0127 -23.8615 24.8231 -21.8876 18.9906C-20.9006 16.0741 -19.7457 13.7687 -18.4381 12.1266C-17.1327 10.4873 -15.6932 9.52994 -14.1299 9.25428Z" stroke="#4528B4" stroke-opacity="0.6" stroke-width="0.860003"/>
<path opacity="0.344828" d="M-4.85052 7.17262C-3.26909 7.03426 -1.63084 7.58647 0.0543062 8.83203C1.74236 10.0797 3.45466 12.0077 5.16286 14.5693C8.57902 19.6922 11.9288 27.2731 15.021 36.7694C21.2032 55.7552 26.3264 82.3045 28.9168 111.913C31.5073 141.522 31.0722 168.558 28.2807 188.329C26.8845 198.218 24.9021 206.265 22.4274 211.904C21.19 214.723 19.8384 216.919 18.3927 218.441C16.9494 219.96 15.432 220.788 13.8505 220.927C12.2691 221.065 10.6309 220.513 8.94571 219.267C7.25766 218.02 5.54536 216.092 3.83715 213.53C0.421 208.407 -2.92879 200.826 -6.02098 191.33C-12.2032 172.344 -17.3263 145.795 -19.9168 116.186C-22.5072 86.5769 -22.0721 59.5413 -19.2807 39.7704C-17.8845 29.8815 -15.902 21.834 -13.4274 16.1957C-12.1899 13.3764 -10.8384 11.1804 -9.39268 9.65854C-7.94943 8.13927 -6.43196 7.31098 -4.85052 7.17262Z" stroke="#4528B4" stroke-opacity="0.6" stroke-width="0.860003"/>
<path opacity="0.37931" d="M4.50001 5.90407C6.08749 5.90407 7.67138 6.59695 9.24155 7.98465C10.8144 9.37474 12.3522 11.4446 13.8306 14.1453C16.7873 19.5465 19.4636 27.3905 21.7164 37.1201C26.2203 56.5725 29.0101 83.4673 29.0101 113.189C29.0101 142.911 26.2203 169.806 21.7164 189.259C19.4636 198.988 16.7873 206.832 13.8306 212.233C12.3522 214.934 10.8144 217.004 9.24155 218.394C7.67138 219.782 6.08749 220.475 4.50001 220.475C2.91254 220.475 1.32865 219.782 -0.241524 218.394C-1.8144 217.004 -3.35217 214.934 -4.83061 212.233C-7.78727 206.832 -10.4636 198.988 -12.7164 189.259C-17.2203 169.806 -20.0101 142.911 -20.0101 113.189C-20.0101 83.4673 -17.2203 56.5725 -12.7164 37.1201C-10.4636 27.3905 -7.78727 19.5465 -4.83061 14.1453C-3.35217 11.4446 -1.8144 9.37474 -0.241524 7.98465C1.32865 6.59695 2.91254 5.90407 4.50001 5.90407Z" stroke="#4528B4" stroke-opacity="0.6" stroke-width="0.860003"/>
<path opacity="0.413793" d="M13.8506 5.45209C15.432 5.59045 16.9495 6.41874 18.3927 7.93801C19.8385 9.45989 21.19 11.6559 22.4274 14.4752C24.9021 20.1135 26.8846 28.1609 28.2808 38.0499C31.0722 57.8208 31.5073 84.8564 28.9168 114.465C26.3264 144.074 21.2032 170.624 15.021 189.609C11.9288 199.106 8.57904 206.687 5.16288 211.81C3.45468 214.371 1.74237 216.299 0.0543255 217.547C-1.63082 218.792 -3.26907 219.345 -4.8505 219.206C-6.43194 219.068 -7.94941 218.24 -9.39266 216.72C-10.8384 215.198 -12.1899 213.002 -13.4273 210.183C-15.902 204.545 -17.8845 196.497 -19.2807 186.608C-22.0721 166.838 -22.5072 139.802 -19.9168 110.193C-17.3263 80.584 -12.2032 54.0347 -6.02097 35.0489C-2.92877 25.5526 0.421019 17.9717 3.83717 12.8488C5.54537 10.2872 7.25768 8.35922 8.94573 7.1115C10.6309 5.86594 12.2691 5.31373 13.8506 5.45209Z" stroke="#4528B4" stroke-opacity="0.6" stroke-width="0.860003"/>
<path opacity="0.448276" d="M23.13 5.81364C24.6934 6.0893 26.1329 7.0467 27.4382 8.68597C28.7458 10.3281 29.9008 12.6335 30.8878 15.55C32.8617 21.3825 34.1352 29.5721 34.6642 39.5451C35.7219 59.484 33.799 86.4546 28.6378 115.725C23.4767 144.996 16.0591 170.997 8.24567 189.372C4.33758 198.563 0.33982 205.823 -3.50983 210.629C-5.43479 213.032 -7.30861 214.803 -9.09898 215.899C-10.8863 216.993 -12.5664 217.4 -14.1298 217.124C-15.6931 216.849 -17.1326 215.891 -18.438 214.252C-19.7456 212.61 -20.9006 210.305 -21.8876 207.388C-23.8614 201.556 -25.135 193.366 -25.664 183.393C-26.7216 163.454 -24.7988 136.483 -19.6376 107.213C-14.4764 77.9424 -7.0588 51.9407 0.754593 33.5659C4.66268 24.3752 8.66044 17.1151 12.5101 12.3095C14.435 9.90646 16.3089 8.1351 18.0992 7.03926C19.8865 5.9453 21.5667 5.53798 23.13 5.81364Z" stroke="#4528B4" stroke-opacity="0.6" stroke-width="0.860003"/>
<path opacity="0.482759" d="M32.2675 6.9798C33.8009 7.39066 35.1515 8.46988 36.309 10.2167C37.4685 11.9665 38.4182 14.3638 39.1472 17.3552C40.6052 23.3375 41.1602 31.607 40.818 41.5881C40.1338 61.5434 35.8676 88.2438 28.175 116.953C20.4823 145.662 10.8268 170.919 1.44163 188.543C-3.2526 197.358 -7.86791 204.242 -12.1218 208.694C-14.2488 210.92 -16.2699 212.521 -18.149 213.457C-20.0248 214.391 -21.7341 214.65 -23.2674 214.239C-24.8008 213.828 -26.1514 212.749 -27.3089 211.002C-28.4684 209.252 -29.4181 206.855 -30.1471 203.864C-31.6051 197.881 -32.1601 189.612 -31.8179 179.631C-31.1337 159.676 -26.8675 132.975 -19.1749 104.266C-11.4822 75.5565 -1.82665 50.3001 7.55848 32.6763C12.2527 23.8612 16.868 16.9772 21.1219 12.5253C23.2489 10.2992 25.27 8.69792 27.1491 7.76228C29.0249 6.82826 30.7342 6.56893 32.2675 6.9798Z" stroke="#4528B4" stroke-opacity="0.6" stroke-width="0.860003"/>
<path opacity="0.517241" d="M41.1938 8.93408C42.6856 9.47703 43.937 10.6698 44.9378 12.5109C45.9404 14.3551 46.6775 16.8261 47.1431 19.8696C48.0741 25.9562 47.9062 34.2426 46.6954 44.1559C44.2746 63.9757 37.6976 90.2026 27.532 118.132C17.3665 146.062 5.54642 170.381 -5.33902 187.119C-10.7837 195.492 -15.9814 201.947 -20.6071 206.012C-22.9201 208.044 -25.073 209.463 -27.0265 210.231C-28.9766 210.998 -30.7019 211.107 -32.1937 210.565C-33.6854 210.022 -34.9368 208.829 -35.9376 206.988C-36.9402 205.144 -37.6773 202.673 -38.1429 199.629C-39.0739 193.542 -38.9061 185.256 -37.6952 175.343C-35.2744 155.523 -28.6974 129.296 -18.5318 101.366C-8.3663 73.4367 3.45376 49.1181 14.3392 32.3792C19.7838 24.0069 24.9816 17.5513 29.6072 13.4871C31.9202 11.4549 34.0732 10.0358 36.0266 9.26748C37.9767 8.50051 39.7021 8.39113 41.1938 8.93408Z" stroke="#4528B4" stroke-opacity="0.6" stroke-width="0.860003"/>
<path opacity="0.551724" d="M49.8406 11.656C51.2794 12.3269 52.422 13.6243 53.2586 15.5455C54.0967 17.4701 54.6156 19.9959 54.8141 23.0684C55.2111 29.2131 54.3217 37.4532 52.2515 47.2233C48.1125 66.7567 39.2747 92.3106 26.7136 119.248C14.1525 146.185 0.257867 169.381 -12.045 185.108C-18.1987 192.974 -23.9393 198.952 -28.9015 202.597C-31.3829 204.42 -33.6513 205.646 -35.6643 206.241C-37.6738 206.835 -39.4021 206.794 -40.8409 206.123C-42.2796 205.452 -43.4223 204.155 -44.2589 202.234C-45.0969 200.309 -45.6158 197.783 -45.8144 194.711C-46.2114 188.566 -45.3219 180.326 -43.2517 170.556C-39.1127 151.022 -30.2749 125.468 -17.7138 98.5311C-5.1527 71.5938 8.74189 48.3978 21.0448 32.6714C27.1984 24.8054 32.939 18.8274 37.9013 15.1819C40.3826 13.3589 42.651 12.1329 44.664 11.5378C46.6736 10.9437 48.4019 10.9851 49.8406 11.656Z" stroke="#4528B4" stroke-opacity="0.6" stroke-width="0.860003"/>
<path opacity="0.586207" d="M58.1428 15.1176C59.5176 15.9114 60.5428 17.3034 61.2088 19.2902C61.8759 21.2805 62.1727 23.842 62.1027 26.9201C61.9627 33.076 60.3584 41.2072 57.4446 50.7597C51.6189 69.858 40.5875 94.5444 25.7265 120.284C10.8654 146.025 -4.99796 167.921 -18.6247 182.516C-25.4405 189.815 -31.6802 195.27 -36.9414 198.469C-39.5721 200.069 -41.9388 201.093 -43.996 201.51C-46.0496 201.927 -47.7678 201.735 -49.1426 200.941C-50.5174 200.148 -51.5426 198.756 -52.2086 196.769C-52.8757 194.778 -53.1725 192.217 -53.1025 189.139C-52.9624 182.983 -51.3582 174.852 -48.4443 165.299C-42.6187 146.201 -31.5873 121.515 -16.7262 95.7744C-1.86519 70.0343 13.9982 48.1377 27.6249 33.5434C34.4407 26.2436 40.6805 20.7887 45.9416 17.5895C48.5723 15.9898 50.939 14.9661 52.9962 14.5487C55.0498 14.132 56.768 14.3239 58.1428 15.1176Z" stroke="#4528B4" stroke-opacity="0.6" stroke-width="0.860003"/>
<path opacity="0.62069" d="M66.0363 19.2866C67.3366 20.1971 68.2367 21.6732 68.7269 23.7106C69.218 25.7514 69.2905 28.329 68.9525 31.3893C68.2764 37.5095 65.9696 45.47 62.2343 54.7322C54.7663 73.2501 41.6253 96.8811 24.5774 121.228C7.52951 145.575 -10.1819 166.006 -25.0288 179.357C-32.4548 186.035 -39.1463 190.925 -44.6662 193.654C-47.4264 195.018 -49.8732 195.831 -51.959 196.068C-54.0412 196.304 -55.736 195.963 -57.0364 195.053C-58.3368 194.142 -59.2368 192.666 -59.7271 190.629C-60.2182 188.588 -60.2906 186.01 -59.9526 182.95C-59.2766 176.83 -56.9698 168.869 -53.2344 159.607C-45.7664 141.089 -32.6254 117.458 -15.5776 93.1112C1.47034 68.7643 19.1818 48.3335 34.0286 34.9824C41.4547 28.3045 48.1461 23.4141 53.6661 20.6856C56.4262 19.3213 58.8731 18.5078 60.9588 18.2713C63.041 18.0352 64.7359 18.3761 66.0363 19.2866Z" stroke="#4528B4" stroke-opacity="0.6" stroke-width="0.860003"/>
<path opacity="0.655172" d="M73.4618 24.124C74.6779 25.1444 75.4459 26.6933 75.7567 28.7656C76.068 30.8415 75.9156 33.4155 75.3121 36.4347C74.1053 42.4728 71.1134 50.2019 66.585 59.1033C57.5315 76.8998 42.381 99.2956 23.276 122.064C4.17097 144.833 -15.2537 163.642 -31.2077 175.648C-39.1875 181.653 -46.2797 185.942 -52.0165 188.179C-54.885 189.298 -57.3935 189.895 -59.4919 189.949C-61.5867 190.002 -63.2455 189.515 -64.4615 188.495C-65.6776 187.474 -66.4456 185.925 -66.7564 183.853C-67.0677 181.777 -66.9153 179.203 -66.3118 176.184C-65.105 170.146 -62.1131 162.417 -57.5847 153.515C-48.5312 135.719 -33.3806 113.323 -14.2757 90.5545C4.82934 67.7861 24.254 48.9767 40.208 36.9704C48.1878 30.9651 55.2801 26.6765 61.0168 24.4395C63.8853 23.321 66.3938 22.7238 68.4922 22.67C70.587 22.6162 72.2458 23.1036 73.4618 24.124Z" stroke="#4528B4" stroke-opacity="0.6" stroke-width="0.860003"/>
<path opacity="0.689655" d="M80.3622 29.5872C81.4847 30.7097 82.1148 32.3196 82.2438 34.4112C82.373 36.5063 81.9968 39.0573 81.1325 42.0124C79.404 47.9223 75.7499 55.3613 70.4629 63.8341C59.8928 80.7738 42.848 101.764 21.8313 122.781C0.81458 143.797 -20.1755 160.842 -37.1152 171.412C-45.5881 176.699 -53.0271 180.353 -58.9369 182.082C-61.8921 182.946 -64.443 183.322 -66.5382 183.193C-68.6297 183.064 -70.2396 182.434 -71.3622 181.312C-72.4847 180.189 -73.1147 178.579 -73.2437 176.488C-73.373 174.392 -72.9968 171.842 -72.1324 168.886C-70.4039 162.977 -66.7498 155.538 -61.4629 147.065C-50.8927 130.125 -33.8479 109.135 -12.8312 88.1182C8.18548 67.1015 29.1756 50.0566 46.1153 39.4865C54.5881 34.1995 62.0272 30.5454 67.937 28.8169C70.8922 27.9526 73.4431 27.5764 75.5383 27.7056C77.6298 27.8347 79.2397 28.4647 80.3622 29.5872Z" stroke="#4528B4" stroke-opacity="0.6" stroke-width="0.860003"/>
<path opacity="0.724138" d="M86.6853 35.6277C87.7057 36.8438 88.1931 38.5025 88.1393 40.5973C88.0855 42.6958 87.4883 45.2042 86.3698 48.0728C84.1328 53.8095 79.8442 60.9017 73.8389 68.8816C61.8326 84.8355 43.0232 104.26 20.2548 123.365C-2.51366 142.47 -24.9095 157.621 -42.7059 166.674C-51.6073 171.203 -59.3365 174.195 -65.3745 175.401C-68.3938 176.005 -70.9678 176.157 -73.0437 175.846C-75.116 175.535 -76.6649 174.767 -77.6853 173.551C-78.7057 172.335 -79.1931 170.676 -79.1393 168.581C-79.0855 166.483 -78.4883 163.975 -77.3697 161.106C-75.1327 155.369 -70.8442 148.277 -64.8389 140.297C-52.8326 124.343 -34.0232 104.919 -11.2548 85.8136C11.5137 66.7086 33.9095 51.5581 51.706 42.5045C60.6073 37.9762 68.3365 34.9843 74.3745 33.7775C77.3938 33.174 79.9678 33.0215 82.0437 33.3329C84.116 33.6437 85.6649 34.4117 86.6853 35.6277Z" stroke="#4528B4" stroke-opacity="0.6" stroke-width="0.860003"/>
<path opacity="0.758621" d="M92.3829 42.193C93.2934 43.4934 93.6343 45.1882 93.3982 47.2704C93.1617 49.3561 92.3482 51.803 90.9838 54.5632C88.2554 60.0831 83.365 66.7746 76.6871 74.2006C63.336 89.0475 42.9052 106.759 18.5583 123.807C-5.78864 140.855 -29.4197 153.996 -47.9375 161.464C-57.1997 165.199 -65.1602 167.506 -71.2804 168.182C-74.3408 168.52 -76.9183 168.447 -78.9592 167.956C-80.9965 167.466 -82.4726 166.566 -83.3831 165.266C-84.2937 163.965 -84.6346 162.27 -84.3984 160.188C-84.1619 158.102 -83.3484 155.656 -81.9841 152.895C-79.2556 147.376 -74.3652 140.684 -67.6873 133.258C-54.3362 118.411 -33.9054 100.7 -9.55853 83.6518C14.7884 66.6039 38.4194 53.463 56.9372 45.995C66.1994 42.2596 74.16 39.9528 80.2802 39.2768C83.3405 38.9388 85.9181 39.0112 87.9589 39.5023C89.9963 39.9926 91.4723 40.8926 92.3829 42.193Z" stroke="#4528B4" stroke-opacity="0.6" stroke-width="0.860003"/>
<path opacity="0.793103" d="M97.4118 49.2267C98.2055 50.6015 98.3974 52.3196 97.9807 54.3733C97.5633 56.4305 96.5397 58.7971 94.94 61.4279C91.7408 66.689 86.2858 72.9288 78.9861 79.7446C64.3918 93.3713 42.4951 109.235 16.755 124.096C-8.98507 138.957 -33.6715 149.988 -52.7697 155.814C-62.3222 158.728 -70.4535 160.332 -76.6094 160.472C-79.6875 160.542 -82.2489 160.245 -84.2392 159.578C-86.2261 158.912 -87.6181 157.887 -88.4118 156.512C-89.2056 155.137 -89.3975 153.419 -88.9808 151.365C-88.5633 149.308 -87.5397 146.942 -85.94 144.311C-82.7408 139.05 -77.2858 132.81 -69.9861 125.994C-55.3918 112.367 -33.4951 96.5041 -7.75506 81.643C17.985 66.782 42.6714 55.7506 61.7697 49.9249C71.3222 47.0111 79.4535 45.4068 85.6093 45.2668C88.6875 45.1968 91.2489 45.4936 93.2392 46.1607C95.2261 46.8267 96.6181 47.8519 97.4118 49.2267Z" stroke="#4528B4" stroke-opacity="0.6" stroke-width="0.860003"/>
<path opacity="0.827586" d="M101.734 56.6685C102.404 58.1073 102.446 59.8356 101.852 61.8451C101.257 63.8581 100.031 66.1265 98.2077 68.6079C94.5622 73.5701 88.5841 79.3107 80.7182 85.4644C64.9918 97.7673 41.7958 111.662 14.8585 124.223C-12.0789 136.784 -37.6328 145.622 -57.1661 149.761C-66.9363 151.831 -75.1764 152.721 -81.3211 152.324C-84.3936 152.125 -86.9194 151.606 -88.844 150.768C-90.7652 149.931 -92.0626 148.789 -92.7335 147.35C-93.4044 145.911 -93.4458 144.183 -92.8517 142.173C-92.2566 140.16 -91.0306 137.892 -89.2076 135.411C-85.5621 130.448 -79.584 124.708 -71.7181 118.554C-55.9916 106.251 -32.7957 92.3567 -5.85836 79.7956C21.079 67.2345 46.6329 58.3966 66.1662 54.2577C75.9364 52.1875 84.1765 51.298 90.3212 51.695C93.3937 51.8936 95.9195 52.4125 97.8441 53.2505C99.7653 54.0871 101.063 55.2298 101.734 56.6685Z" stroke="#4528B4" stroke-opacity="0.6" stroke-width="0.860003"/>
<path opacity="0.862069" d="M105.315 64.4556C105.858 65.9473 105.749 67.6727 104.982 69.6228C104.213 71.5762 102.794 73.7292 100.762 76.0422C96.698 80.6678 90.2424 85.8656 81.87 91.3102C65.1311 102.196 40.8125 114.016 12.8829 124.181C-15.0468 134.347 -41.2737 140.924 -61.0934 143.345C-71.0068 144.555 -79.2931 144.723 -85.3798 143.792C-88.4233 143.327 -90.8943 142.59 -92.7385 141.587C-94.5795 140.586 -95.7724 139.335 -96.3153 137.843C-96.8583 136.351 -96.7489 134.626 -95.9819 132.676C-95.2136 130.722 -93.7945 128.569 -91.7623 126.256C-87.6981 121.631 -81.2425 116.433 -72.8701 110.988C-56.1313 100.103 -31.8126 88.2829 -3.88302 78.1174C24.0466 67.9518 50.2736 61.3748 70.0933 58.954C80.0066 57.7432 88.293 57.5753 94.3796 58.5064C97.4232 58.9719 99.8941 59.709 101.738 60.7116C103.579 61.7125 104.772 62.9638 105.315 64.4556Z" stroke="#4528B4" stroke-opacity="0.6" stroke-width="0.860003"/>
<path opacity="0.896552" d="M108.13 72.5219C108.541 74.0553 108.281 75.7645 107.347 77.6403C106.412 79.5194 104.81 81.5405 102.584 83.6676C98.1323 87.9214 91.2482 92.5367 82.4332 97.2309C64.8093 106.616 39.553 116.272 10.8437 123.964C-17.8657 131.657 -44.566 135.923 -64.5213 136.607C-74.5025 136.949 -82.7719 136.395 -88.7543 134.937C-91.7457 134.207 -94.143 133.258 -95.8928 132.098C-97.6396 130.941 -98.7188 129.59 -99.1297 128.057C-99.5406 126.523 -99.2812 124.814 -98.3472 122.938C-97.4115 121.059 -95.8103 119.038 -93.5842 116.911C-89.1323 112.657 -82.2482 108.042 -73.4332 103.348C-55.8093 93.9627 -30.553 84.3071 -1.84368 76.6144C26.8657 68.9218 53.566 64.6556 73.5213 63.9714C83.5025 63.6292 91.7719 64.1842 97.7543 65.6422C100.746 66.3712 103.143 67.3209 104.893 68.4804C106.64 69.6379 107.719 70.9885 108.13 72.5219Z" stroke="#4528B4" stroke-opacity="0.6" stroke-width="0.860003"/>
<path opacity="0.931035" d="M110.155 80.7994C110.431 82.3628 110.024 84.0429 108.93 85.8302C107.834 87.6206 106.063 89.4944 103.66 91.4193C98.854 95.269 91.5938 99.2668 82.4032 103.175C64.0284 110.988 38.0267 118.406 8.75616 123.567C-20.5144 128.728 -47.485 130.651 -67.424 129.593C-77.397 129.064 -85.5866 127.791 -91.4191 125.817C-94.3355 124.83 -96.641 123.675 -98.2831 122.367C-99.9223 121.062 -100.88 119.623 -101.155 118.059C-101.431 116.496 -101.024 114.816 -99.9298 113.028C-98.8339 111.238 -97.0626 109.364 -94.6596 107.439C-89.8539 103.59 -82.5938 99.5918 -73.4032 95.6838C-55.0284 87.8704 -29.0266 80.4528 0.243899 75.2916C29.5144 70.1304 56.4851 68.2075 76.424 69.2652C86.397 69.7942 94.5866 71.0678 100.419 73.0416C103.336 74.0286 105.641 75.1836 107.283 76.4912C108.922 77.7965 109.88 79.236 110.155 80.7994Z" stroke="#4528B4" stroke-opacity="0.6" stroke-width="0.860003"/>
<path opacity="0.965517" d="M111.377 89.2191C111.515 90.8005 110.963 92.4387 109.718 94.1239C108.47 95.8119 106.542 97.5242 103.98 99.2324C98.8575 102.649 91.2766 105.998 81.7803 109.091C62.7945 115.273 36.2452 120.396 6.63618 122.986C-22.9728 125.577 -50.0084 125.142 -69.7793 122.35C-79.6682 120.954 -87.7157 118.972 -93.354 116.497C-96.1733 115.26 -98.3693 113.908 -99.8912 112.462C-101.41 111.019 -102.239 109.502 -102.377 107.92C-102.515 106.339 -101.963 104.7 -100.718 103.015C-99.4699 101.327 -97.542 99.6149 -94.9804 97.9067C-89.8575 94.4906 -82.2766 91.1408 -72.7803 88.0486C-53.7945 81.8664 -27.2452 76.7432 2.3638 74.1528C31.9728 71.5623 59.0083 71.9974 78.7793 74.7889C88.6682 76.1851 96.7157 78.1675 102.354 80.6422C105.173 81.8796 107.369 83.2312 108.891 84.6769C110.41 86.1202 111.239 87.6376 111.377 89.2191Z" stroke="#4528B4" stroke-opacity="0.6" stroke-width="0.860003"/>
<path d="M111.785 97.7094C111.785 99.2969 111.092 100.881 109.705 102.451C108.315 104.024 106.245 105.562 103.544 107.04C98.1429 109.997 90.2989 112.673 80.5692 114.926C61.1169 119.43 34.2221 122.22 4.5 122.22C-25.2221 122.22 -52.1168 119.43 -71.5692 114.926C-81.2989 112.673 -89.1429 109.997 -94.5441 107.04C-97.2448 105.562 -99.3146 104.024 -100.705 102.451C-102.092 100.881 -102.785 99.2969 -102.785 97.7094C-102.785 96.1219 -102.092 94.5381 -100.705 92.9679C-99.3146 91.395 -97.2448 89.8572 -94.5441 88.3788C-89.1429 85.4221 -81.2989 82.7458 -71.5692 80.493C-52.1168 75.9891 -25.2221 73.1993 4.5 73.1993C34.2221 73.1993 61.1169 75.9891 80.5692 80.493C90.2989 82.7458 98.1429 85.4221 103.544 88.3788C106.245 89.8572 108.315 91.395 109.705 92.9679C111.092 94.5381 111.785 96.1219 111.785 97.7094Z" stroke="#4528B4" stroke-opacity="0.6" stroke-width="0.860003"/>
</svg>
