<svg width="35" height="30" viewBox="0 0 35 30" fill="none" xmlns="http://www.w3.org/2000/svg">
<path d="M34.038 4.02126C34.0304 3.22056 33.7469 2.49993 33.241 1.88198C32.4743 0.947519 31.4776 0.493477 30.2624 0.500071C27.2565 0.516085 24.2506 0.521736 21.2447 0.532098C21.1175 0.532098 20.9904 0.532098 20.8161 0.532098C21.3512 0.908897 21.7741 1.32526 22.0897 1.83771C22.1876 1.99596 22.2988 2.03082 22.4712 2.03082C25.0617 2.02799 27.6512 2.02987 30.2417 2.03364C31.5775 2.03553 32.4978 2.96151 32.4978 4.2982C32.4978 6.05409 32.4969 7.81091 32.4931 9.56679C32.4903 10.9063 31.5718 11.8257 30.2323 11.8285C28.7647 11.8314 27.297 11.8304 25.8294 11.8314C24.8252 11.8314 23.8201 11.8314 22.816 11.8332C22.4637 11.8332 22.1839 11.9745 22.0548 12.3099C22.0275 12.3805 22.0124 12.4578 22.004 12.5369C22.0369 12.5633 22.0435 12.6113 22.0247 12.6481C22.0247 12.65 22.0228 12.6509 22.0219 12.6528C22.0181 12.6594 22.0115 12.6631 22.0058 12.6679C22.0058 12.7008 22.003 12.7328 21.9992 12.7649C22.0011 12.7818 21.9992 12.7988 21.9917 12.8139C21.9917 12.8139 21.9917 12.8157 21.9917 12.8167C21.9823 17.1047 21.9616 21.3936 21.9804 25.6815C21.9861 26.9174 20.9791 27.9414 19.7366 27.9207C17.9628 27.8915 16.189 27.916 14.4152 27.9131C13.1077 27.9112 12.1978 26.9994 12.1968 25.6947C12.194 21.955 12.1912 18.2153 12.1883 14.4755C12.1883 14.4209 12.1836 14.3653 12.1883 14.3107C12.2025 14.1647 12.1328 14.1195 11.9943 14.1214C11.5553 14.1261 11.1164 14.1232 10.6425 14.1232C10.6425 14.2146 10.6425 14.2843 10.6425 14.3531C10.6388 18.171 10.6312 21.9889 10.6331 25.8068C10.635 27.8472 12.2307 29.4674 14.2768 29.4891C16.1523 29.5089 18.0287 29.4966 19.9042 29.4919C20.4365 29.491 20.9527 29.3808 21.4275 29.1387C22.8094 28.4341 23.5451 27.3008 23.5498 25.7494C23.563 21.743 23.5498 17.7367 23.547 13.7314C23.547 13.5009 23.6641 13.3857 23.8983 13.3857C26.0414 13.3875 28.1835 13.3988 30.3265 13.3904C32.4394 13.3819 34.0455 11.773 34.0512 9.66288C34.0568 7.78171 34.0559 5.8996 34.038 4.01843V4.02126Z" fill="white"/>
<path d="M22.0428 7.77415C22.0211 6.56745 22.023 5.35887 22.0428 4.15217C22.055 3.40894 21.8176 2.74954 21.4192 2.14854C20.7061 1.07467 19.6595 0.555626 18.3944 0.549974C13.4885 0.530192 8.5835 0.53396 3.67758 0.536786C1.62403 0.53867 0.0113261 2.15514 0.0047321 4.20775C-0.00186188 6.0503 -0.00186184 7.89284 0.00661614 9.73539C0.0160361 11.7823 1.6391 13.4082 3.687 13.4092C8.33105 13.412 16.4021 13.4064 21.3598 13.4026C21.3598 13.3979 21.3617 13.3941 21.3626 13.3903C21.3334 13.3894 21.3202 13.3885 21.3315 13.3875C21.3344 13.3677 21.3372 13.3479 21.34 13.3282C21.2581 13.3008 21.5407 13.2726 21.7262 13.2424C21.7262 13.1652 21.7291 13.088 21.7432 13.0107C21.7441 13.0032 21.7451 12.9956 21.746 12.9881C21.7507 12.9636 21.7686 12.9467 21.7903 12.9363C21.7978 12.9014 21.8063 12.8675 21.8138 12.8327C21.8176 12.8138 21.8214 12.795 21.8252 12.7762C21.8261 12.7686 21.828 12.7611 21.8289 12.7535C21.8289 12.7517 21.8289 12.7526 21.8289 12.7507C21.8289 12.746 21.8299 12.7422 21.8308 12.7375C21.8336 12.713 21.8327 12.6885 21.8327 12.6641C21.8242 12.6735 21.8148 12.6838 21.8063 12.6942C21.8157 12.6829 21.8252 12.6641 21.8336 12.6396C21.8336 12.6349 21.8336 12.6311 21.8336 12.6264C21.8327 12.6075 21.8402 12.5906 21.8515 12.5765C22.0324 11.8313 22.0493 8.10102 22.0437 7.77321L22.0428 7.77415ZM20.5902 11.9293C15.7333 11.9236 8.54582 11.918 3.92627 11.9039C3.62483 11.9039 3.30832 11.8671 3.02383 11.7739C2.06394 11.4564 1.52229 10.6463 1.52229 9.57148C1.52229 7.8156 1.52983 6.05877 1.53642 4.30289C1.54113 3.00293 2.47559 2.07318 3.77931 2.06753C4.9408 2.06282 6.10228 2.05623 7.26376 2.05434C10.9376 2.04775 14.6104 2.03927 18.2842 2.04681C18.6111 2.04681 18.9624 2.11181 19.261 2.2418C20.0561 2.58846 20.5299 3.21112 20.5497 4.09283C20.5827 5.56611 20.5779 7.04033 20.5864 8.51362C20.5921 9.4754 20.5921 10.944 20.5902 11.9302V11.9293Z" fill="white"/>
<path d="M12.1471 11.1559H10.6578C10.654 11.0749 10.6465 10.9995 10.6465 10.9242C10.6493 8.64266 10.6455 6.36114 10.6663 4.07963C10.6691 3.72732 10.784 3.37595 10.8575 3.02647C10.8679 2.97937 10.9366 2.91343 10.9837 2.90967C11.451 2.86916 11.9182 2.83336 12.3864 2.81264C12.5361 2.80604 12.5559 2.92568 12.4787 3.02365C12.1669 3.42023 12.1461 3.88275 12.1461 4.35469C12.148 6.61266 12.1461 8.86968 12.1461 11.155L12.1471 11.1559Z" fill="white"/>
</svg>
